<svg xmlns="http://www.w3.org/2000/svg" viewBox="0 0 150 30">
  <g fill="none" fill-rule="evenodd">
    <g fill="currentColor">
      <path d="M50.822 18.655v-.776l-3.325.53c-1.132.176-1.981.704-1.981 1.94 0 .917.601 1.799 2.087 1.799 1.592 0 3.22-.776 3.22-3.493m-5.413-3.247l4.14-.635c.955-.14 1.272-.6 1.272-1.2 0-1.023-.884-1.905-2.582-1.905-1.875 0-2.901 1.27-3.007 2.576l-4.67-.953c.212-2.505 2.547-5.822 7.713-5.822 5.695 0 7.783 3.176 7.783 6.775v8.574c0 1.377.177 2.541.212 2.718h-4.847c-.036-.142-.176-.777-.176-1.976-.921 1.482-2.619 2.47-4.954 2.47-3.856 0-6.085-2.54-6.085-5.329 0-3.105 2.3-4.869 5.2-5.293M65.911 8.003h3.432v4.694H65.91v6.563c0 1.446.779 1.835 1.946 1.835.566 0 1.097-.106 1.416-.177v4.446c-.213.106-1.097.494-2.796.494-3.644 0-5.873-2.152-5.873-5.646v-7.515h-3.113V8.003h.885c1.84 0 2.724-1.235 2.724-2.858V2.887h4.811v5.116zM84.414 16.754c0-2.964-1.91-4.34-3.963-4.34-2.016 0-3.962 1.376-3.962 4.34 0 2.929 1.946 4.376 3.962 4.376 2.053 0 3.963-1.411 3.963-4.376m5.378 0c0 5.434-4.069 9.316-9.34 9.316-5.237 0-9.34-3.882-9.34-9.316 0-5.434 4.103-9.28 9.34-9.28 5.271 0 9.34 3.846 9.34 9.28M92.095 25.672V8.044h5.13v2.022c.885-1.56 3.15-2.553 5.06-2.553 2.511 0 4.316 1.028 5.2 2.766 1.38-1.987 3.078-2.766 5.449-2.766 3.326 0 6.51 1.95 6.51 6.738v11.421h-5.201V15.458c0-1.668-.885-2.98-2.795-2.98s-2.937 1.454-2.937 3.014v10.18h-5.306V15.458c0-1.668-.885-2.98-2.83-2.98-1.876 0-2.902 1.454-2.902 3.05v10.144h-5.378zM122.391 8.044h5.378v17.628h-5.378V8.044zm2.654-7.982c1.769 0 3.184 1.418 3.184 3.156a3.167 3.167 0 0 1-3.184 3.157c-1.698 0-3.113-1.419-3.113-3.157s1.415-3.156 3.113-3.156zM135.381 16.876c0 2.802 1.875 4.363 4.104 4.363 2.087 0 3.255-1.313 3.644-2.625l4.74 1.454c-.778 3.086-3.679 6.137-8.384 6.137-5.236 0-9.446-3.867-9.446-9.329 0-5.497 4.103-9.364 9.269-9.364 4.847 0 7.677 2.98 8.456 6.137l-4.812 1.454c-.39-1.348-1.45-2.625-3.538-2.625-2.229 0-4.033 1.56-4.033 4.398"/>
    </g>
    <path d="M15.867 17.333c-1.68 2.895-16.69 5.683-15.09 2.924L10.84 2.915c1.601-2.76 6.7 11.536 5.028 14.418z" fill="#2962FF"/><path d="M15.852 17.324c-1.67-2.88 3.432-17.168 5.032-14.41l10.062 17.343c1.601 2.759-13.413-.035-15.094-2.933z" fill="#00D7FF"/><path d="M25.924 28.914H5.8c-3.202 0 6.724-11.542 10.087-11.542 3.345 0 13.238 11.542 10.037 11.542z" fill="#F50057"/><path d="M15.844 17.372l-5.016 8.645c0 .006-.006.006-.006.012-.006.005-.006.011-.012.017a5.796 5.796 0 0 1-5.01 2.868h-.018a7.006 7.006 0 0 1-.632-.034l-.232-.035a4.843 4.843 0 0 1-.684-.15 1.296 1.296 0 0 1-.255-.075 5.404 5.404 0 0 1-1.08-.48c-.034-.022-.069-.04-.104-.063a5.403 5.403 0 0 1-.463-.311c-.064-.046-.122-.093-.18-.139a5.944 5.944 0 0 1-.453-.404c-.063-.063-.127-.133-.191-.202a.829.829 0 0 1-.116-.133 2.443 2.443 0 0 1-.191-.236 3.23 3.23 0 0 1-.21-.283 1.38 1.38 0 0 1-.121-.196 1.045 1.045 0 0 1-.116-.19 2.952 2.952 0 0 1-.174-.33c-.006 0-.006-.005-.006-.011-.052-.11-.104-.22-.145-.33-.04-.091-.075-.19-.11-.282a5.622 5.622 0 0 1-.25-1.01c-.005-.011-.005-.023-.005-.034A1.784 1.784 0 0 1 .04 23.8c-.012-.098-.023-.19-.03-.283v-.006c-.005-.127-.01-.248-.01-.37v-.016a6.905 6.905 0 0 1 .034-.63l.035-.23c.029-.225.08-.456.15-.681a1.28 1.28 0 0 1 .076-.254c.116-.364.278-.727.481-1.074l.064-.104A5.799 5.799 0 0 1 5.8 17.372h10.044z" fill="#2962FF"/><path d="M31.724 23.126v.017c0 .121-.006.242-.012.37v.005c-.006.092-.017.185-.029.283-.006.063-.012.127-.023.185 0 .011 0 .023-.006.034a6.107 6.107 0 0 1-.25 1.01c-.034.092-.069.19-.11.283-.04.11-.092.22-.145.329 0 .006 0 .011-.005.011-.053.116-.11.225-.174.33-.035.069-.07.132-.116.19a1.38 1.38 0 0 1-.122.196 3.23 3.23 0 0 1-.209.283c-.058.08-.122.161-.191.236a.829.829 0 0 1-.116.133 5.944 5.944 0 0 1-.644.606c-.058.046-.116.093-.18.139-.145.11-.301.213-.464.311-.035.023-.07.04-.104.064a5.404 5.404 0 0 1-1.079.479 1.296 1.296 0 0 1-.255.075c-.226.07-.458.115-.684.15l-.232.035c-.099.011-.192.017-.285.023-.116.005-.232.011-.348.011h-.017a5.796 5.796 0 0 1-5.01-2.868c-.007-.006-.007-.012-.012-.017 0-.006-.006-.006-.006-.012l-5.017-8.645h10.045c2.1 0 3.944 1.113 4.959 2.781l.063.104c.203.347.366.71.482 1.074.035.08.058.167.075.254.07.225.122.456.151.68l.035.232c.011.098.017.19.023.282.006.116.012.231.012.347" fill="#F50057"/><path d="M15.862 17.343l-5.023-8.657a5.746 5.746 0 0 1-.023-5.731c.064-.11.134-.225.203-.335.07-.098.134-.196.209-.288a5.618 5.618 0 0 1 1.148-1.143c.093-.075.192-.139.29-.208.099-.063.197-.121.296-.179.122-.069.25-.138.377-.196a3.61 3.61 0 0 1 .342-.15c.232-.098.47-.179.708-.237.238-.063.481-.11.725-.144a5.901 5.901 0 0 1 1.496 0c.244.035.487.08.725.144.243.064.475.139.707.237a5.879 5.879 0 0 1 1.015.525c.099.07.198.133.29.208.099.075.198.15.29.23.227.191.435.399.627.624.08.092.156.19.232.289.075.092.139.19.208.288.064.098.122.196.18.295l.023.04a5.746 5.746 0 0 1-.023 5.73l-5.022 8.658z" fill="#00D7FF"/>
  </g>
</svg>
