<svg xmlns="http://www.w3.org/2000/svg" viewBox="0 0 389 182">
  <g fill="none" fill-rule="evenodd">
    <path fill="#000" d="M128.188992 103.9117138L128.11634 102.94H120l.044795 1.0929967c.499072 12.1773683 8.708737 20.2430033 23.309119 20.2430033 13.925229 0 23.394-7.2348517 23.394-18.186 0-5.9215478-2.05438-10.112024-5.969081-12.9738378-3.011317-2.2014008-6.61187-3.4422549-12.582423-4.7368179-.398924-.0864967-.814731-.1750321-1.313007-.279883-.295882-.0622618-1.357507-.284493-1.301166-.2726813-10.842929-2.2731672-14.282323-4.2478563-14.282323-10.12878 0-6.0813084 4.973129-9.954 13.314-9.954 8.115024 0 13.243659 4.9562434 13.482492 12.7581278L158.127565 81.52h8.05686l-.02479-1.0742243C165.87899 68.2845154 157.719276 60.1 144.529914 60.1c-12.926708 0-21.462 7.7783391-21.462 17.85 0 5.9048062 2.052204 10.0168746 5.973079 12.7642805 2.986946 2.0929909 6.447158 3.2025603 12.551119 4.4349514.285868.0577169.584126.1172974.939207.1877365.219794.0436015.468031.0926876.933899.1847856 5.775379 1.1426937 8.32366 1.8479845 10.648423 3.1998229 2.885962 1.6781724 4.318273 4.0752886 4.318273 7.7884231 0 6.4468018-5.420404 10.122-14.91 10.122-9.084667 0-14.722512-4.5560439-15.332922-12.7202862zM183.757914 59.05V58h-8.064v65.1h8.064v-12.2829251l8.488419-8.2669815 15.158786 20.1315095.315048.4183971h10.031221l-1.27918-1.6849118-18.512747-24.3846307 17.07315-16.9922339L216.835378 78.244h-10.960571l-.307983.3101754-21.80891 21.9641333V59.05zm75.348 44.394h.986424l.061531-.9845028c.010823-.1731549.026872-.4593763.042911-.8042127.012696-.272962.023167-.5389501.030651-.7904293.008111-.2725209.012483-.5204201.012483-.7388552 0-13.1792967-8.729302-22.89-21.63-22.89-12.87646 0-22.05 10.3367549-22.05 23.394 0 13.4361336 8.75774 23.478 22.134 23.478 10.114182 0 17.927867-6.0011063 20.74312-15.1037568l.420694-1.3602432h-8.381377l-.247986.6988697c-1.767872 4.9821856-6.55424 8.2891303-12.450451 8.2891303-7.708403 0-13.081921-5.2937112-14.049936-13.188h34.377936zm-34.133591-6.972c1.361124-7.0683624 6.559612-11.76 13.637591-11.76 7.295176 0 12.32973 4.537681 13.430952 11.76h-27.068543zm61.727591-11.088h1.05v-7.14h-9.828v-12.18h-8.064v12.18h-8.148v7.14h8.148v25.158c0 8.2529923 4.28062 12.726 12.138 12.726 1.371438 0 2.553699-.0821015 3.546447-.2199831.613427-.0851983 1.037037-.1734503 1.270579-.2383231l.768974-.2136039v-7.4768753l-1.273051.2767502c-.050884.0110617-.153963.032037-.301202.0596444-.249486.0467787-.527381.0937204-.825516.1375637-.7635.1122795-1.520772.1842424-2.217958.1968726-.071714.0012992-.142487.0019545-.212273.0019545-3.442042 0-4.83-1.6167424-4.83-5.67V85.384h8.778zm25.074 38.724c11.16181 0 19.042817-7.0631669 21.022-17.0580396l.248309-1.2539604h-8.133659l-.207409.7802538c-1.695496 6.3782946-6.297447 10.0557462-12.929241 10.0557462-8.276272 0-13.986-6.5286528-13.986-15.918 0-9.4619782 5.699811-16.002 13.986-16.002 6.631794 0 11.233745 3.6774516 12.929241 10.0557462l.207409.7802538h8.133659l-.248309-1.2539604c-1.979183-9.9948727-9.86019-17.0580396-21.022-17.0580396-12.965969 0-22.134 10.4098108-22.134 23.478 0 12.996313 9.180655 23.394 22.134 23.394zm36.12-65.058V58h-8.064v65.1h8.064V96.766c0-7.7035477 4.68896-12.222 11.802-12.222 6.793649 0 10.206 3.9328794 10.206 11.382V123.1h8.064V94.75c0-10.5223584-6.515508-17.514-17.262-17.514-5.528719 0-9.972738 2.0255513-12.81 4.9327318V59.05z" class="sketch-wordmark"></path>
    <path fill="#FDB300" d="M20.9032258 50.8314732l27-2.8314732 27 2.8314732 20.9032258 27.8348214L47.9032258 134 0 78.6662946l20.9032258-27.8348214z"></path>
    <path fill="#EA6C00" d="M19.403 78.666295l28.5 55.334L0 78.666295m76.403678 0l-28.5 55.334 47.903-55.334"></path>
    <path fill="#FDAD00" d="M19.403 78.666295h57l-28.5 55.334"></path>
    <path fill="#FDD231" d="M47.903 48l-27 2.831-1.5 27.835M47.903452 48l27 2.831 1.5 27.835"></path>
    <path fill="#FDAD00" d="M95.806678 78.666l-20.903-27.835 1.5 27.835M0 78.666l20.903-27.835-1.5 27.835"></path>
    <path fill="#FEEEB7" d="M47.903 48l-28.5 30.666h57"></path>
  </g>
</svg>
