<svg width="45" height="45" viewBox="0 0 45 45" xmlns="http://www.w3.org/2000/svg" xmlns:sketch="http://www.bohemiancoding.com/sketch/ns"><title>rs-rocket</title><desc>Created with Sketch.</desc><g sketch:type="MSShapeGroup" fill="none"><path d="M8.909 30.831c-1.142 2.696-2.323 5.596-3.72 8.779 3.183-1.397 6.082-2.578 8.779-3.72l-5.059-5.059z" id="Shape" fill="#0186CB"/><path d="M22.936 15.018c-3.161 3.161-5.961 6.577-8.352 10.121l-.457-.458c1.778-4.184 4.611-8.503 8.309-12.2 5.917-5.916 13.097-9.713 19.098-10.26-6.384 3.001-12.987 7.186-18.598 12.797m21.779-14.93c-6.904-.743-16.151 3.218-23.802 10.869-1.354 1.354-2.589 2.758-3.705 4.19l-7.023-.217-10.185 13.06.651.633 9.766.06.074-.105-.053.221 5.565 5.564.21-.05-.097.069.061 9.767.631.651 13.058-10.184-.216-7.019c1.432-1.117 2.837-2.353 4.192-3.708 7.653-7.651 11.614-16.899 10.873-23.801" fill="#929191"/></g></svg>
