<!-- Generator: Adobe Illustrator 19.2.0, SVG Export Plug-In  -->
<svg version="1.1"
   xmlns="http://www.w3.org/2000/svg" xmlns:xlink="http://www.w3.org/1999/xlink" xmlns:a="http://ns.adobe.com/AdobeSVGViewerExtensions/3.0/"
   x="0px" y="0px" width="469.1px" height="469.1px" viewBox="0 0 469.1 469.1" style="enable-background:new 0 0 469.1 469.1;"
   xml:space="preserve">
<style type="text/css">
  .st0{fill:#FFFFFF;}
</style>
<defs>
</defs>
<g>
  <path class="st0" d="M234.5,0C105,0,0,105,0,234.5s105,234.5,234.5,234.5c129.5,0,234.5-105,234.5-234.5S364.1,0,234.5,0z
     M234.5,430.6c-108.1,0-196-87.9-196-196s87.9-196,196-196c108.1,0,196,87.9,196,196S342.6,430.6,234.5,430.6z"/>
  <path class="st0" d="M379.5,188.7c0-0.2-0.1-0.4-0.1-0.5c-0.1-0.4-0.1-0.7-0.2-1c-0.1-0.2-0.1-0.4-0.2-0.6
    c-0.1-0.3-0.2-0.6-0.3-0.9c-0.1-0.2-0.2-0.4-0.3-0.6c-0.1-0.3-0.3-0.6-0.4-0.8c-0.1-0.2-0.2-0.4-0.4-0.6c-0.2-0.3-0.3-0.5-0.5-0.8
    c-0.1-0.2-0.3-0.4-0.4-0.5c-0.2-0.2-0.4-0.5-0.6-0.7c-0.2-0.2-0.3-0.3-0.5-0.5c-0.2-0.2-0.5-0.4-0.7-0.6c-0.2-0.1-0.4-0.3-0.6-0.4
    c-0.1,0-0.1-0.1-0.2-0.2L241.5,91.6c-4.2-2.8-9.6-2.8-13.8,0L95.1,180c-0.1,0-0.1,0.1-0.2,0.2c-0.2,0.1-0.4,0.3-0.6,0.4
    c-0.2,0.2-0.5,0.4-0.7,0.6c-0.2,0.2-0.3,0.3-0.5,0.5c-0.2,0.2-0.4,0.4-0.6,0.7c-0.1,0.2-0.3,0.4-0.4,0.5c-0.2,0.2-0.4,0.5-0.5,0.8
    c-0.1,0.2-0.2,0.4-0.4,0.6c-0.2,0.3-0.3,0.5-0.4,0.8c-0.1,0.2-0.2,0.4-0.3,0.6c-0.1,0.3-0.2,0.6-0.3,0.9c-0.1,0.2-0.1,0.4-0.2,0.6
    c-0.1,0.3-0.2,0.7-0.2,1c0,0.2-0.1,0.4-0.1,0.5c-0.1,0.5-0.1,1.1-0.1,1.6v88.4c0,0.5,0,1.1,0.1,1.6c0,0.2,0.1,0.4,0.1,0.5
    c0.1,0.4,0.1,0.7,0.2,1c0.1,0.2,0.1,0.4,0.2,0.6c0.1,0.3,0.2,0.6,0.3,0.9c0.1,0.2,0.2,0.4,0.3,0.6c0.1,0.3,0.3,0.6,0.4,0.8
    c0.1,0.2,0.2,0.4,0.4,0.6c0.2,0.3,0.3,0.5,0.5,0.8c0.1,0.2,0.3,0.4,0.4,0.5c0.2,0.2,0.4,0.5,0.6,0.7c0.2,0.2,0.3,0.3,0.5,0.5
    c0.2,0.2,0.5,0.4,0.7,0.6c0.2,0.1,0.4,0.3,0.6,0.4c0.1,0,0.1,0.1,0.2,0.2l132.6,88.4c2.1,1.4,4.5,2.1,6.9,2.1
    c2.4,0,4.8-0.7,6.9-2.1L374,289.1c0.1,0,0.1-0.1,0.2-0.2c0.2-0.1,0.4-0.3,0.6-0.4c0.2-0.2,0.5-0.4,0.7-0.6c0.2-0.2,0.3-0.3,0.5-0.5
    c0.2-0.2,0.4-0.4,0.6-0.7c0.1-0.2,0.3-0.4,0.4-0.5c0.2-0.2,0.4-0.5,0.5-0.8c0.1-0.2,0.2-0.4,0.4-0.6c0.2-0.3,0.3-0.5,0.4-0.8
    c0.1-0.2,0.2-0.4,0.3-0.6c0.1-0.3,0.2-0.6,0.3-0.9c0.1-0.2,0.1-0.4,0.2-0.6c0.1-0.3,0.2-0.7,0.2-1c0-0.2,0.1-0.4,0.1-0.5
    c0.1-0.5,0.1-1.1,0.1-1.6v-88.4C379.6,189.8,379.5,189.3,379.5,188.7z M247,125.3l97.7,65.1L301,219.6l-54-36.1V125.3z
     M222.1,125.3v58.1l-54,36.1l-43.6-29.2L222.1,125.3z M114.5,213.7l31.2,20.9l-31.2,20.9V213.7z M222.1,343.8l-97.7-65.1l43.6-29.2
    l54,36.1V343.8z M234.5,264l-44.1-29.5l44.1-29.5l44.1,29.5L234.5,264z M247,343.8v-58.1l54-36.1l43.6,29.2L247,343.8z
     M354.6,255.4l-31.2-20.9l31.2-20.9V255.4z"/>
</g>
</svg>
