<svg class="polyonlion" viewBox="13 103.7 586 580" width="200" height="236" xmlns="http://www.w3.org/2000/svg"><defs><filter id="a" color-interpolation-filters="sRGB"><feComponentTransfer><feFuncA type="table" tableValues="0 0.5 1 1"/></feComponentTransfer></filter></defs><g filter="url(#a)" stroke-width="2.5"><path fill="#231F20" stroke="#231F20" style="transform-origin:0 0 0" d="M306 524.3l82.3 27.6-76.7-49.9z"/><path fill="#333" stroke="#333" style="transform-origin:0 0 0" d="M223.7 551.9l82.3-27.6-5.6-22.5zm135.9-131.2l-53.4 27.9h48.5z"/><path fill="#454545" stroke="#454545" style="transform-origin:0 0 0" d="M306 413.9l.2 34.7 53.4-27.9z"/><path fill="#707070" stroke="#707070" style="transform-origin:0 0 0" d="M306 413.9l-53.6 6.8 53.8 27.9z"/><path fill="#454545" stroke="#454545" style="transform-origin:0 0 0" d="M252.4 420.7l5.1 27.9h48.7z"/><path fill="#333" stroke="#333" style="transform-origin:0 0 0" d="M257.5 448.6l48.9 36.3-.2-36.3z"/><path fill="#333" stroke="#333" style="transform-origin:0 0 0" d="M306.4 484.9l-.4 39.4 12.2-48.2z"/><path fill="#231F20" stroke="#231F20" style="transform-origin:0 0 0" d="M306.2 448.6l.2 36.3 48.3-36.3z"/><path fill="#231F20" stroke="#231F20" style="transform-origin:0 0 0" d="M293.8 475.5l12.2 48.8.4-39.4z"/><path fill="#454545" stroke="#454545" style="transform-origin:0 0 0" d="M211.3 319.9l-18.9 5.6 36 13.5 32.8-12.8z"/><path fill="#333" stroke="#333" style="transform-origin:0 0 0" d="M261.2 326.2L228.4 339l20.3 16.1z"/><path fill="#231F20" stroke="#231F20" style="transform-origin:0 0 0" d="M192.4 325.5l10.3 28.4 46 1.2-20.3-16.1z"/><path fill="#231F20" stroke="#231F20" style="transform-origin:0 0 0" d="M248.7 355.1l10.5 22.5 2-51.4z"/><path fill="#454545" stroke="#454545" style="transform-origin:0 0 0" d="M350.8 326.2l12.2 28.9 20.6-16.1-17.6-.3z"/><path fill="#333" stroke="#333" style="transform-origin:0 0 0" d="M350.8 326.2l2 51.4 10.2-22.5zm49.9-6.3l-49.9 6.3 15.2 12.5 17.6.3 36-13.5z"/><path fill="#231F20" stroke="#231F20" style="transform-origin:0 0 0" d="M363 355.1l20.6-16.1 36-13.5-10.3 28.4z"/><path fill="#CCC" stroke="#CCC" style="transform-origin:0 0 0" d="M490.1 341.9l-80.8 12 16.2 57.8z"/><path fill="#D9D9D9" stroke="#D9D9D9" style="transform-origin:0 0 0" d="M419.6 325.5l-10.3 28.4 80.8-12z"/><path fill="#CCC" stroke="#CCC" style="transform-origin:0 0 0" d="M415.4 278.3l-14.7 41.6 18.9 5.6 70.5 16.4z"/><path fill="#BFBFBF" stroke="#BFBFBF" style="transform-origin:0 0 0" d="M451.4 238.6l-36 39.7 74.7 63.6z"/><path fill="#E4E4E4" stroke="#E4E4E4" style="transform-origin:0 0 0" d="M451.4 238.6l-97.7 40.9 61.7-1.2z"/><path fill="#D9D9D9" stroke="#D9D9D9" style="transform-origin:0 0 0" d="M415.4 278.3l-61.7 1.2 47 40.4zm-109.4-59l47.7 60.2 97.7-40.9z"/><path fill="#E4E4E4" stroke="#E4E4E4" style="transform-origin:0 0 0" d="M306 219.3l-145.4 19.3 97.4 40.9z"/><path fill="#D9D9D9" stroke="#D9D9D9" style="transform-origin:0 0 0" d="M306 219.3l-48 60.2 48 17.1z"/><path fill="#CCC" stroke="#CCC" style="transform-origin:0 0 0" d="M306 219.3v77.3l47.7-17.1z"/><path fill="#D9D9D9" stroke="#D9D9D9" style="transform-origin:0 0 0" d="M353.7 279.5L306 296.6l44.8 29.6z"/><path fill="#E4E4E4" stroke="#E4E4E4" style="transform-origin:0 0 0" d="M353.7 279.5l-2.9 46.7 49.9-6.3z"/><path fill="#D9D9D9" stroke="#D9D9D9" style="transform-origin:0 0 0" d="M350.8 326.2L306 382.3l46.8-4.7z"/><path fill="#CCC" stroke="#CCC" style="transform-origin:0 0 0" d="M261.2 326.2l44.8 56.1 44.8-56.1z"/><path fill="#D9D9D9" stroke="#D9D9D9" style="transform-origin:0 0 0" d="M194.6 278.3l16.7 41.6 46.7-40.4z"/><path fill="#E4E4E4" stroke="#E4E4E4" style="transform-origin:0 0 0" d="M258 279.5l-46.7 40.4 49.9 6.3zm-63.4-1.2l-72.4 63.6 70.2-16.4 18.9-5.6z"/><path fill="#D9D9D9" stroke="#D9D9D9" style="transform-origin:0 0 0" d="M160.6 238.6l-38.4 103.3 72.4-63.6z"/><path fill="#CCC" stroke="#CCC" style="transform-origin:0 0 0" d="M160.6 238.6l34 39.7 63.4 1.2z"/><path fill="#E4E4E4" stroke="#E4E4E4" style="transform-origin:0 0 0" d="M202.7 353.9l-16.4 57.8 72.9-34.1z"/><path fill="#D9D9D9" stroke="#D9D9D9" style="transform-origin:0 0 0" d="M259.2 377.6l-72.9 34.1 66.1 9z"/><path fill="#E4E4E4" stroke="#E4E4E4" style="transform-origin:0 0 0" d="M261.2 326.2l-2 51.4 46.8 4.7zm148.1 27.7l-56.5 23.7 72.7 34.1z"/><path fill="#D9D9D9" stroke="#D9D9D9" style="transform-origin:0 0 0" d="M352.8 377.6l6.8 43.1 65.9-9z"/><path fill="#CCC" stroke="#CCC" style="transform-origin:0 0 0" d="M352.8 377.6l-46.8 4.7 53.6 38.4z"/><path fill="#D9D9D9" stroke="#D9D9D9" style="transform-origin:0 0 0" d="M306 382.3v31.6l53.6 6.8z"/><path fill="#E4E4E4" stroke="#E4E4E4" style="transform-origin:0 0 0" d="M306 382.3l-53.6 38.4 53.6-6.8z"/><path fill="#CCC" stroke="#CCC" style="transform-origin:0 0 0" d="M259.2 377.6l-6.8 43.1 53.6-38.4z"/><path fill="#E4E4E4" stroke="#E4E4E4" style="transform-origin:0 0 0" d="M306 296.6l-44.8 29.6h89.6z"/><path fill="#CCC" stroke="#CCC" style="transform-origin:0 0 0" d="M258 279.5l3.2 46.7 44.8-29.6z"/><path fill="#BFBFBF" stroke="#BFBFBF" style="transform-origin:0 0 0" d="M490.1 341.9l-64.6 69.8 14.2 74.1z"/><path fill="#D9D9D9" stroke="#D9D9D9" style="transform-origin:0 0 0" d="M257.5 448.6l-28.1 53.6 64.4-26.7z"/><path fill="#E4E4E4" stroke="#E4E4E4" style="transform-origin:0 0 0" d="M257.5 448.6l-84.9 37.2 56.8 16.4z"/><path fill="#D9D9D9" stroke="#D9D9D9" style="transform-origin:0 0 0" d="M354.7 448.6l27.9 53.6 57.1-16.4z"/><path fill="#BFBFBF" stroke="#BFBFBF" style="transform-origin:0 0 0" d="M439.7 485.8l-57.1 16.4 5.7 49.7z"/><path fill="#CCC" stroke="#CCC" style="transform-origin:0 0 0" d="M311.6 502l76.7 49.9-5.7-49.7z"/><path fill="#D9D9D9" stroke="#D9D9D9" style="transform-origin:0 0 0" d="M318.2 476.1l-6.6 25.9 71 .2z"/><path fill="#E4E4E4" stroke="#E4E4E4" style="transform-origin:0 0 0" d="M354.7 448.6l-36.5 27.5 64.4 26.1z"/><path fill="#D9D9D9" stroke="#D9D9D9" style="transform-origin:0 0 0" d="M306 524.3l.2 42.6 82.1-15z"/><path fill="#CCC" stroke="#CCC" style="transform-origin:0 0 0" d="M388.3 551.9l-82.1 15 55 38.6z"/><path fill="#BFBFBF" stroke="#BFBFBF" style="transform-origin:0 0 0" d="M306.2 566.9l-55.3 38.6h110.3z"/><path fill="#D9D9D9" stroke="#D9D9D9" style="transform-origin:0 0 0" d="M223.7 551.9l27.2 53.6 55.3-38.6z"/><path fill="#E4E4E4" stroke="#E4E4E4" style="transform-origin:0 0 0" d="M306 524.3l-82.3 27.6 82.5 15z"/><path fill="#CCC" stroke="#CCC" style="transform-origin:0 0 0" d="M300.4 501.8l-71 .4-5.7 49.7z"/><path fill="#BFBFBF" stroke="#BFBFBF" style="transform-origin:0 0 0" d="M293.8 475.5l-64.4 26.7 71-.4z"/><path fill="#D9D9D9" stroke="#D9D9D9" style="transform-origin:0 0 0" d="M172.6 485.8l51.1 66.1 5.7-49.7z"/><path fill="#CCC" stroke="#CCC" style="transform-origin:0 0 0" d="M186.3 411.7l-13.7 74.1 84.9-37.2z"/><path fill="#BFBFBF" stroke="#BFBFBF" style="transform-origin:0 0 0" d="M122.2 341.9l50.4 143.9 13.7-74.1z"/><path fill="#CCC" stroke="#CCC" style="transform-origin:0 0 0" d="M425.5 411.7l-70.8 36.9 85 37.2z"/><path fill="#E4E4E4" stroke="#E4E4E4" style="transform-origin:0 0 0" d="M186.3 411.7l71.2 36.9-5.1-27.9z"/><path fill="#D9D9D9" stroke="#D9D9D9" style="transform-origin:0 0 0" d="M122.2 341.9l64.1 69.8 16.4-57.8z"/><path fill="#E4E4E4" stroke="#E4E4E4" style="transform-origin:0 0 0" d="M369.6 191.6L306 219.3l145.4 19.3z"/><path fill="#D9D9D9" stroke="#D9D9D9" style="transform-origin:0 0 0" d="M242.4 191.6l-81.8 47L306 219.3z"/><path fill="#CCC" stroke="#CCC" style="transform-origin:0 0 0" d="M192.4 325.5l-70.2 16.4 80.5 12z"/><path fill="#BFBFBF" stroke="#BFBFBF" style="transform-origin:0 0 0" d="M425.5 411.7l-65.9 9-4.9 27.9z"/><path fill="#D9D9D9" stroke="#D9D9D9" style="transform-origin:0 0 0" d="M409.3 353.9l-46.3 1.2-10.2 22.5zm-150.1 23.7l-10.5-22.5-46-1.2z"/><path fill="#F06F28" stroke="#F06F28" style="transform-origin:0 0 0" d="M369.6 191.6H242.4l63.6 27.7z"/><path fill="#F79333" stroke="#F79333" style="transform-origin:0 0 0" d="M242.4 191.6L306 57.7l63.6 133.9z"/><path fill="#F06F28" stroke="#F06F28" style="transform-origin:0 0 0" d="M160 88.5l146-30.8-63.6 133.9z"/><path fill="#FAB03F" stroke="#FAB03F" style="transform-origin:0 0 0" d="M160.6 238.6l81.8-47L160 88.5z"/><path fill="#F79333" stroke="#F79333" style="transform-origin:0 0 0" d="M60.2 184.7l100.4 53.9-.6-150.1z"/><path fill="#FAB03F" stroke="#FAB03F" style="transform-origin:0 0 0" d="M60.2 184.7l62 157.2 38.4-103.3z"/><path fill="#F06F28" stroke="#F06F28" style="transform-origin:0 0 0" d="M60.2 184.7L13 341.9h109.2z"/><path fill="#F1562F" stroke="#F1562F" style="transform-origin:0 0 0" d="M13 341.9l36.4 161.8 72.8-161.8z"/><path fill="#F79333" stroke="#F79333" style="transform-origin:0 0 0" d="M122.2 341.9L49.4 503.7l123.2-17.9z"/><path fill="#FAB03F" stroke="#FAB03F" style="transform-origin:0 0 0" d="M172.6 485.8L49.4 503.7l174.3 48.2z"/><path fill="#F06F28" stroke="#F06F28" style="transform-origin:0 0 0" d="M49.4 503.7L116.5 620l107.2-68.1z"/><path fill="#F1562F" stroke="#F1562F" style="transform-origin:0 0 0" d="M223.7 551.9L116.5 620l134.4-14.5z"/><path fill="#FFC149" stroke="#FFC149" style="transform-origin:0 0 0" d="M250.9 605.5L116.5 620l87.4 74.2z"/><path fill="#FAB03F" stroke="#FAB03F" style="transform-origin:0 0 0" d="M250.9 605.5l-47 88.7L306 734.3z"/><path fill="#F06F28" stroke="#F06F28" style="transform-origin:0 0 0" d="M361.2 605.5H250.9L306 734.3z"/><path fill="#F79333" stroke="#F79333" style="transform-origin:0 0 0" d="M361.2 605.5L306 734.3l102.3-40.1z"/><path fill="#CB2E20" stroke="#CB2E20" style="transform-origin:0 0 0" d="M361.2 605.5l47.1 88.7 87.2-74.2z"/><path fill="#F06F28" stroke="#F06F28" style="transform-origin:0 0 0" d="M388.3 551.9l-27.1 53.6L495.5 620z"/><path fill="#FAB03F" stroke="#FAB03F" style="transform-origin:0 0 0" d="M562.6 503.7l-174.3 48.2L495.5 620z"/><path fill="#F06F28" stroke="#F06F28" style="transform-origin:0 0 0" d="M439.7 485.8l-51.4 66.1 174.3-48.2z"/><path fill="#F1562F" stroke="#F1562F" style="transform-origin:0 0 0" d="M490.1 341.9l-50.4 143.9 122.9 17.9z"/><path fill="#CB2E20" stroke="#CB2E20" style="transform-origin:0 0 0" d="M599 341.9H490.1l72.5 161.8z"/><path fill="#F1562F" stroke="#F1562F" style="transform-origin:0 0 0" d="M551.8 184.7l-61.7 157.2H599z"/><path fill="#F79333" stroke="#F79333" style="transform-origin:0 0 0" d="M451.4 238.6l100.4-53.9-61.7 157.2z"/><path fill="#FAB03F" stroke="#FAB03F" style="transform-origin:0 0 0" d="M455.8 88.8l-4.4 149.8 100.4-53.9z"/><path fill="#F06F28" stroke="#F06F28" style="transform-origin:0 0 0" d="M455.8 88.8l-86.2 102.8 81.8 47z"/><path fill="#F1562F" stroke="#F1562F" style="transform-origin:0 0 0" d="M306 57.7l63.6 133.9 86.2-102.8z"/></g></svg>