<svg xmlns="http://www.w3.org/2000/svg" viewBox="0 0 60 59.3"><defs><style>.st0{fill:#fff}.st1{fill:#4b56ac}</style></defs><path class="st0" d="M58.8 43.4c-.6.4-1.3.7-2 1-.4.1-.8-.4-.5-.7 4.1-5.9 3.9-10.5 3.1-13-.2-.7-1.2-.8-1.5-.1-.3.6-.7 1.2-1.4 1.6-.3.2-.7 0-.7-.4-.6-6.2-4.9-15.9-7.8-15.2-3 .7 2 10.4-1.1 10.4-2.1 0-2.4-4.1-3.8-8.9-1.1-3.9-2.6-7.6-4.3-7.6-1.5 0-2.1 2.3-1.8 5.8s.6 7.7-1.1 7.7-2-2.6-2.8-8.1c-.8-5.6-1.7-9.7-3.6-9.7s-2.7 3-3.1 12.9c-.2 4.2-.6 4.8-1.6 4.8s-1.5-1-1.9-4.8c-.7-7.7-1.2-10.2-3-10.2s-3.1 3-4.5 10.1c-1.3 6.2-.8 10.2-3.7 10.2-1.4 0-2.2-1.2-2.2-3.1 0-1.4 2-5.8-1.4-5.8-3 0-5.3 5.3-5.3 11.2 0 1.1.2 2.3.5 3.7.1.3-.2.7-.6.6-.6-.2-1.1-.5-1.5-.8-.4-.4-1.2 0-1.2.7.1 2.3 1 6 5.2 9.8.3.3.1.8-.3.8-.7 0-1.4-.1-2-.4-.6-.3-1.3.4-1.1 1 2.3 6 10.5 11.9 18.3 11.9 4.1 0 6.7-1.8 10.9-1.8s4.7 2.3 11.6 2.3c10.3 0 15.9-9.4 17.3-15.1.3-.7-.5-1.2-1.1-.8zM7.2 19c.3.2.8 0 1.8.2.9.1 1.2.6 1.7.4.3-.1.5-.4.7-1.2.2-1.4.5-3.2-.7-3.3-1.1-.2-2.4 1.4-3.2 2.4-.4.5-.7 1.2-.3 1.5zm13-11.5c1 0 1.3.6 1.8.4.3-.1.5-.5.4-1.3-.1-1.4-.7-3.6-1.6-3.6-1.4 0-3 4-2.4 4.6.3.4.7-.1 1.8-.1zm16.5 2.2c.5.1.8-.5 1.7-.6 1-.1 1.4.3 1.8-.1.5-.5-1.3-4.4-2.7-4.2-.9.1-1.3 2.3-1.3 3.6 0 .8.1 1.2.5 1.3zM27.4 5c.5.3.8-.2 1.9-.3 1-.1 1.3.4 1.9.2.3-.1.4-.5.2-1.4-.3-1.4-1.2-3.6-2.1-3.5-1.5.3-2.6 4.6-1.9 5zm19.2 10.6c.3-.1.5-.4 1-.4.9-.1 1.4.2 1.7-.1.3-.3-.1-1.1-.8-1.8-1.4-1.5-2.2-1.8-2.7-1.8-.9 0-.7 1.8-.1 3.5.1.7.5.8.9.6z"/><path class="st1" d="M21.9 35.8c-1.5-1.7-2.5-2.4-7.4-2.4-1.1 0-1.9.4-2.4 2-1 3-2.1 6.6-2.5 8.6-.5 1.9.2 2.8 2 3.2 5.9 1.4 9.6-.3 11.4-5.2.6-2 .1-4.9-1.1-6.2zm-3.3 4.6c-.2 1.2-1.5 2.8-3.8 2.3-.4-.1-1-.2-.7-1.4.2-.7.7-2.3.9-3.1.2-.5.4-.8.9-.8 3 .1 2.9 1.8 2.7 3zm15 5.9c-2.5-.3-2.6-.6-2.5-2 0-.7.2-1.7.5-3.1.6-3.3.8-3.6 2.2-3.6h.7c1.8 0 2.5-.8 2.5-2.1 0-.9-.6-2-2.4-2h-8.3c-1.4 0-2.6 1-2.6 2s.5 1.6 1.3 1.9c1 .4 2-.1 2.8.5.4.3.3.7.2 1.5-.2 1.6-.7 3.8-1 5-.2.8-.6 1.1-2.4 1.1-2.2 0-3.1 1-3.2 2.3-.1.9.7 1.6 1.6 1.7 2.4.5 6.9 1.4 8.9 1.8 3.5.7 5.2-4.5 1.7-5zm13.9-11.5c-.5 1-1.4 2.8-2.3 3.8-.3.4-.7.5-1.1 0-.6-.8-1.3-2.4-1.7-3.5-1-3.1-5.2-2.1-4.1 1.8.6 2.3 1.6 4.8 2.9 6.6.2.2.1.6 0 .8-.9 1.2-2.7 3.7-4.4 5.4-.7.7-1 1.6-.7 2.3s1.1 1.1 2 1.1c1.3 0 2.9-.8 4.3-2.3 3.9-3.9 7-8.5 9.3-13.9 1.9-4-2.6-5.5-4.2-2.1z"/></svg>