<svg version="1.1" xmlns="http://www.w3.org/2000/svg" xmlns:xlink="http://www.w3.org/1999/xlink" viewBox="0 0 191.8 28.3">
<style type="text/css">
  .st0{fill:#B1B1B1;}
</style>
<defs>
</defs>
<g id="Page-1_1_">
  <g id="theron_1_">
    <path id="Theron-Studios-Copy-4_1_" class="st0" d="M9.5,5.6c-3.9,5.9-8.3,14.9-9.3,18.3
      c-0.5,2,0,3.2,0.5,3.8C1.1,28,1.3,28,1.4,27.6C4.7,20,8.2,14.1,10.7,9.6c1.1-2,1.4-3.4,1.4-4.4c2.4-0.4,5-0.8,7.1-0.6
      c0.5,0,0.6-0.3,0.5-0.6c-0.6-1.6-2.2-2.1-3.9-2.1C13.3,1.8,6.4,3.3,2.7,3C2.3,3,2.1,3.2,2.3,3.6C2.7,5.1,4.5,6,7,5.9
      C7.7,5.9,8.6,5.8,9.5,5.6L9.5,5.6L9.5,5.6z"/>
    <path id="Path_25_" class="st0" d="M28.1,23.7c0.6-1.2,0.6-2.1,0.4-2.6c-0.2-0.3-0.6-0.3-0.7,0
      c-1.3,2.7-3.6,5.6-5.3,5.7c-1.5,0.1-1.7-1.9-0.7-4.3c1-2.2,2.9-5.2,3.9-7c1.1-2.1-0.2-4.2-1.6-4.4c-1.1-0.1-3.3,1.2-5,2.9
      c1.8-2.8,4-6.1,5-7.8c1.6-2.6,1.7-4.7,1.2-5.9c-0.2-0.5-0.6-0.5-1,0c-3.4,4.2-12,18.8-13.5,23c-0.9,2.5-0.5,3.7,0.2,4.4
      c0.2,0.3,0.5,0.2,0.7-0.2c1-2.5,2.5-5.4,4-7.9c2.4-3.9,6.9-6.8,7.5-6.4c0.7,0.4-2.9,4.7-4.3,8.7c-1.2,3.6-0.4,6.1,3.1,6.1
      C24.4,28.1,26.9,26,28.1,23.7L28.1,23.7L28.1,23.7z"/>
    <path id="Path_24_" class="st0" d="M54.8,23.8c0.5-1.2,0.4-2.2,0.2-2.7c-0.2-0.4-0.5-0.3-0.6,0
      c-1.3,3.1-3.4,5.8-5.2,5.7c-1.2,0-1.7-1.7-1-4c0.7-2.2,2.8-5.1,4.8-7.2c1.2-1.4,0.2-3.4-0.6-4.3c-0.3-0.4-0.7-0.2-1.2,0.1
      c-1.6,1.1-3.1,1.7-4.5,2c1-2.7,1.5-5.2,0.2-5.2c-1.7,0.1-5.8,5.6-2.6,6.9c-2.3,5.3-6.9,11.8-11.4,11.6c-2.1-0.1-3.2-2.8-1.8-6.6
      c2.9,2.3,5.7,1.3,7.6-1.2c1.7-2.1,2.1-4.6,1.4-5.6c-0.7-0.9-1.4-1.5-2.5-2.1c-2.1-1.2-6.3,1.1-8.9,6.3C25.9,22.9,27.7,28.1,33,28
      c4.9-0.1,9.4-5.3,12.9-12.5c1.3,0,3.2-0.4,5-1.6c-1.8,2-4.3,5.1-5.1,7.8c-1,3.4,0.2,6.2,3.4,6.4C51.3,28.2,53.8,26.3,54.8,23.8
      L54.8,23.8z M31.3,19.3c0.1-0.2,0.2-0.5,0.3-0.7c1.9-3.8,5.3-6.4,6.2-5.6c0.5,0.5-0.3,2.6-1.7,4.3C35,18.9,33.4,20.6,31.3,19.3
      L31.3,19.3z"/>
    <path id="Path_23_" class="st0" d="M85.9,23.7c0.6-1.3,0.6-2.1,0.4-2.6c-0.1-0.3-0.5-0.3-0.7,0
      c-1.6,3-3.6,5.7-5.2,5.7c-1.6,0-1.8-1.8-0.7-4.2c1-2.2,2.9-5.1,3.9-7c1-2.1-0.2-4.2-1.6-4.4c-1.4-0.2-4.2,2.1-6,4
      c0.5-1.5,0.5-2.9-0.2-3.9c-0.2-0.4-0.6-0.4-0.9,0.1c-2.2,3.4-4.9,6.4-7.6,6.5c0-0.2,0-0.5,0-0.7c0.2-3-1-3.2-2-4.6
      c-0.8-1.1-1.5-1.5-2.8-1.4c-2.5,0.2-5,2.6-6.6,5.4c-1.9,3.2-2.5,6.9-0.7,9.3c1.6,2.2,3.7,2.2,5.2,1.7c3.1-1,5.7-5.3,6.6-8.8
      c1.5,0.1,2.7-0.3,3.9-1c-1.2,2.2-2.2,4.4-2.6,5.6c-0.7,2.1-0.4,3.4,0.3,4.2c0.4,0.4,0.7,0.2,0.8-0.1c1.7-3.9,3.7-7.9,6.1-10.5
      c2.7-2.9,5-4,5.5-3.8c0.7,0.2-2.9,4.7-4.3,8.7c-1.2,3.5-0.3,6.1,3.1,6.1C82.2,28.1,84.7,26.1,85.9,23.7L85.9,23.7z M64.4,18.3
      c-0.3,1-0.8,2.2-1.5,3.5c-2,3.7-4.6,5.2-5.7,4.3s-0.5-4.8,1.3-7.9c0.9-1.5,2.1-3,3.2-3.9C61.7,15.9,62.9,17.5,64.4,18.3L64.4,18.3
      z"/>
    <path id="Path_22_" class="st0" d="M64.6,17.2c-0.8-0.7-1.1-1.9-1-2.8c0.2-1.2,1-1.5,1.2-0.1
      C65,15,64.9,16,64.6,17.2L64.6,17.2L64.6,17.2z"/>
    <path id="Path_21_" class="st0" d="M92.8,21.9c-0.4,0.1-0.5,0.4-0.1,1c5.9,7.1,13.1,6.3,15.6,3.4
      c1.8-2.1,2-4,0.5-5.1c-2.3-1.7-7.6-3.9-7.5-6.6c0.2-5.2,10.4-11.5,11.8-10.1c1,1-2.1,4.5-3,6.5c-0.9,2-0.4,3.2,0.4,4
      c0.5,0.5,0.7,0.2,0.9-0.1c0.6-1,1.8-3.2,2.9-4.6c0.6-0.9,1.6-2.5,1.2-4.2c-0.3-1.2-1-2.5-2.1-3.5C112,1.3,110,1.6,108,2.5
      C104.3,4,97.9,8.9,97.9,14.6c0,4.3,6.6,6.9,8.8,8.7c0.6,0.5,0.8,1.4,0.1,2.2c-0.5,0.5-1.4,0.7-2.6,0.7c-2.7,0-5.5-2.2-7.2-3.5
      C95.9,21.8,94.2,21.5,92.8,21.9L92.8,21.9L92.8,21.9z"/>
    <path id="Path_20_" class="st0" d="M118.6,11.3c-1.8,3.3-3.5,6.8-4.4,8.8c-2,4.8,0.2,7.8,2.9,7.9
      c3.3,0.1,6.1-3.5,6.6-4.7c0.4-1,0.6-1.7,0.4-2.4c-0.2-0.6-0.6-0.5-0.9,0c-1.5,3.1-3.9,6.1-5.8,6c-1.7-0.1-2.2-2.7-0.8-5.7
      c1.6-3.5,3.9-7.5,5.6-10.3c1-0.2,2.3-0.3,3.2-0.2c0.6,0,0.8-0.3,0.5-0.8c-0.3-0.5-1-1.3-2.6-1.2c1-2.2,1-3.5,0.5-4.7
      c-0.2-0.5-0.6-0.5-1,0c-0.7,0.9-1.9,2.9-3.2,5.1c-1.1,0.1-2.3,0.2-3.4,0.2c-0.6,0-0.9,0.2-0.5,0.8
      C116.3,10.7,117.2,11.3,118.6,11.3L118.6,11.3L118.6,11.3z"/>
    <path id="Path_19_" class="st0" d="M130,24.1c-0.3,2.4,0.7,4.1,3.4,4.1c2.5,0,5-2.1,6.2-4.4
      c0.6-1.2,0.5-2.3,0.4-2.6c-0.2-0.4-0.5-0.3-0.7,0c-1.6,2.9-3.7,5.6-5.5,5.7c-1.5,0.1-1.7-1.7-0.6-4c1-2.1,3-5.2,3.9-7.1
      c1-2.1,0.7-3.9,0-4.7c-0.3-0.4-0.6-0.3-1,0.2c-1.3,1.8-2.5,4.7-5.1,8.9c-2.2,3.6-4.5,6.5-6.1,6.4c-1-0.1-1.1-1.6-0.2-3.6
      c0.9-2,1.7-3.7,3.2-6.1c1.5-2.4,1.7-4.2,0.8-5.6c-0.3-0.4-0.7-0.4-1.1,0c-2.7,3.8-4.8,7.8-5.7,10.6c-0.9,2.7-0.8,5.8,2.1,6
      C126.4,28.1,128.6,26,130,24.1L130,24.1L130,24.1z"/>
    <path id="Path_18_" class="st0" d="M150.2,22.9c2.1-4.4,6.1-11.3,8.1-14.8c1.7-3.1,1.9-4.9,1.3-6.3
      c-0.2-0.5-0.6-0.6-1,0c-1.5,2.1-4.7,7.8-6.9,12c0-1.5-0.8-2.8-2.5-2.8c-2.1,0-5.4,1.9-8.7,6.7c-3.4,5-2.7,10.3,1.2,10.3
      c2,0,3.8-1.5,5.1-3.2c0,2,1.1,3.2,3.4,3.3c2.3,0.1,4.9-2.1,6-4.4c0.5-1.1,0.5-2.2,0.3-2.6c-0.2-0.3-0.5-0.3-0.7,0
      c-1.5,2.9-3.7,5.6-5.4,5.7C149,27.1,149.1,25.4,150.2,22.9L150.2,22.9z M149.8,13.2c1.2,0,0.6,2.7-1.8,7.3c-2,3.8-4.2,6.2-5.9,6.2
      c-1.6,0-1.2-3.7,1.1-7.2C145.5,15.8,148.5,13.1,149.8,13.2L149.8,13.2z"/>
    <path id="Path_17_" class="st0" d="M165,8.4c-0.5-1.1-1.7-1.6-2.4-0.9c-0.7,0.7-0.9,2-0.2,3.1
      c0.6,1.1,1.8,1.2,2.3,0.6C165.2,10.6,165.5,9.4,165,8.4L165,8.4L165,8.4z"/>
    <path id="Path_16_" class="st0" d="M158.2,28.1c2.3,0,4.9-1.7,6.2-4.3c0.5-1,0.6-1.9,0.3-2.6
      c-0.2-0.3-0.5-0.4-0.7,0c-1.2,2.9-3.5,5.6-5.4,5.7c-1.3,0.1-1.4-1.5-0.4-3.9c0.9-2.1,2.6-4.9,3.5-6.7c1-2.1,0.7-3.9,0-4.5
      c-0.3-0.4-0.6-0.2-1,0.2c-1.5,2.2-4.3,7.1-5.3,10.1C154.3,25.4,155.1,28.1,158.2,28.1L158.2,28.1L158.2,28.1z"/>
    <path id="Path_15_" class="st0" d="M177.9,18.5c0.2-0.2,0.2-0.4-0.1-0.4c-0.3,0-0.6,0.1-0.8,0.1
      c0-0.3,0-0.6,0.1-1c0.2-3-1-3.3-2-4.6c-0.8-1.1-1.5-1.5-2.8-1.4c-2.5,0.2-5,2.6-6.6,5.4c-1.9,3.3-2.5,6.9-0.7,9.3
      c1.7,2.2,3.7,2.3,5.2,1.8c3.1-1,5.7-5.2,6.6-8.8C177.2,19,177.6,18.8,177.9,18.5L177.9,18.5z M174,18.5c-0.3,1-0.8,2.2-1.5,3.3
      c-2,3.8-4.6,5.3-5.7,4.3c-1.1-0.9-0.5-4.7,1.3-7.9c0.9-1.6,2.1-2.9,3.2-3.9c0,1.5,1,3,1.9,3.7C173.5,18.2,173.7,18.4,174,18.5
      L174,18.5z"/>
    <path id="Path_14_" class="st0" d="M174.3,17.4c-0.7-0.6-1.1-1.8-0.9-2.9c0.2-1.2,1-1.5,1.2-0.1
      C174.8,15.1,174.7,16.1,174.3,17.4L174.3,17.4L174.3,17.4z"/>
    <path id="Path_13_" class="st0" d="M179.1,20.6c0-0.3,0-0.7-0.1-1c0-0.7-0.4-0.8-0.9-0.4
      c-1.4,1.2-1.5,3.9-0.5,5.8c1.4,2.6,3.7,3.2,6.1,3.1c2.9-0.1,5.8-1.7,7.4-4.6c0.7-1.3,0.7-2.4,0.6-2.7c-0.2-0.3-0.6-0.5-0.8,0
      c-1,2.2-2.8,4.7-5.6,5.8c1.5-1,1.8-2.7,1.9-4.4c0.1-2.9-0.7-6.1-0.4-9.9c0.2-0.3,0.3-0.5,0.5-0.8c0.5-1,0.7-1.4,0.3-1.8
      c-0.4-0.4-1.3-0.2-2.2,0.6c-0.9,0.8-1.3,1.6-1.5,3.2C182.7,15.6,180.8,18.3,179.1,20.6L179.1,20.6z M183.8,16.1
      c0.2,3.3,0.8,9.8-1.1,10.4c-1.4,0.4-2.6-1.3-3.2-3.7C181,20.6,182.6,18.3,183.8,16.1L183.8,16.1z"/>
  </g>
</g>
</svg>
