<svg class="logo" xmlns="http://www.w3.org/2000/svg" viewBox="0 0 474.2 58.3"><path d="M46 42.6c-1.2 0-2.3.5-3 1.1-4.1 3.5-8.1 5.4-14.1 5.4-10.8 0-18.6-8.9-18.6-20V29c0-11 7.9-19.9 18.6-19.9 5.4 0 9.6 1.9 13.4 5.1.6.5 1.6 1 3 1 2.7 0 4.9-2.1 4.9-4.8 0-1.8-.9-3.1-1.9-3.9C43.4 2.6 37.7 0 29 0 12 0 0 13.1 0 29.1v.2c0 16.2 12.2 29 28.6 29 9.1 0 15.1-2.9 20.4-7.6.9-.8 1.6-2 1.6-3.5.1-2.5-2.1-4.6-4.6-4.6zm36.9-18C72 22 69.4 20.1 69.4 15.8v-.2c0-3.7 3.4-6.7 9.2-6.7 4.4 0 8.6 1.4 13 4.3.8.5 1.6.7 2.6.7 2.6 0 4.7-2 4.7-4.6 0-1.9-1-3.3-2.2-3.9C91.6 2 85.8.2 78.8.2 67.6.2 59.6 6.9 59.6 16.5v.2c0 10.4 6.8 13.9 18.7 16.8C88.7 35.9 91 38.1 91 42.1v.2c0 4.2-3.9 7.1-10 7.1s-11.1-2.1-15.8-5.8c-.6-.5-1.5-.9-2.9-.9-2.6 0-4.7 2-4.7 4.6 0 1.6.8 3 1.9 3.8 6.3 4.7 13.5 7.1 21.2 7.1 11.8 0 20.1-6.3 20.1-16.8v-.2c.1-9.4-6-13.7-17.9-16.6zm49.8 0c-10.9-2.6-13.4-4.5-13.4-8.9v-.2c0-3.7 3.4-6.7 9.2-6.7 4.4 0 8.6 1.4 13 4.3.8.5 1.6.7 2.6.7 2.6 0 4.7-2 4.7-4.6 0-1.9-1-3.3-2.2-3.9-5.1-3.4-10.8-5.2-17.9-5.2-11.2 0-19.2 6.7-19.2 16.3v.2c0 10.4 6.8 13.9 18.7 16.8 10.5 2.4 12.7 4.6 12.7 8.6v.2c0 4.2-3.9 7.1-10 7.1s-11.1-2.1-15.8-5.8c-.6-.5-1.5-.9-2.9-.9-2.6 0-4.7 2-4.7 4.6 0 1.6.8 3 1.9 3.8 6.3 4.7 13.5 7.1 21.2 7.1 11.8 0 20.1-6.3 20.1-16.8v-.2c.1-9.3-6.1-13.6-18-16.5zm45.7 3.2h-15.1c-2.6 0-4.7 2.2-4.7 4.8 0 2.6 2.2 4.7 4.7 4.7h15.1c2.6 0 4.7-2.2 4.7-4.7 0-2.6-2.2-4.8-4.7-4.8zM224 1h-37.4C184 1 182 3.1 182 5.6c0 2.5 2 4.6 4.6 4.6h13.7v42.6c0 2.7 2.3 4.9 5 4.9s5-2.2 5-4.9V10.1H224c2.5 0 4.5-2.1 4.5-4.6 0-2.4-2-4.5-4.5-4.5zm38.8 0h-20.1c-2.8 0-5 2.2-5 5v46.8c0 2.7 2.2 4.9 5 4.9 2.7 0 4.9-2.2 4.9-4.9V37.7h12.5l13.7 17.5c1.1 1.5 2.6 2.6 4.8 2.6 2.4 0 4.7-1.9 4.7-4.6 0-1.5-.6-2.6-1.6-3.8l-10.8-13.6c7.6-2.3 12.8-7.8 12.8-16.8v-.2c0-4.9-1.7-9.1-4.7-12.1-3.6-3.6-9.1-5.7-16.2-5.7zm10.9 18.5c0 5.7-4.5 9.4-11.6 9.4h-14.5V10H262c7.3 0 11.7 3.3 11.7 9.3v.2zM300.6.6c-2.8 0-5 2.2-5 4.9v47.3c0 2.7 2.2 4.9 5 4.9 2.7 0 4.9-2.2 4.9-4.9V5.5c0-2.8-2.1-4.9-4.9-4.9zm62.7 42c-1.2 0-2.3.5-3 1.1-4.1 3.5-8.1 5.4-14.1 5.4-10.8 0-18.6-8.9-18.6-20V29c0-11 7.9-19.9 18.6-19.9 5.4 0 9.6 1.9 13.4 5.1.6.5 1.6 1 3 1 2.7 0 4.9-2.1 4.9-4.8 0-1.8-.9-3.1-1.9-3.9C360.7 2.6 355 0 346.3 0c-17.1 0-29 13.1-29 29.1v.2c0 16.2 12.2 29 28.6 29 9.1 0 15.1-2.9 20.4-7.6.9-.8 1.6-2 1.6-3.5.1-2.5-2.1-4.6-4.6-4.6zm41-16.9l17.5-16.9c1.1-1 1.8-2.2 1.8-3.7 0-2.4-1.8-4.6-4.6-4.6-1.8 0-3 .6-4.1 1.9l-26.7 26.9V5.5c0-2.7-2.2-4.9-4.9-4.9-2.8 0-5 2.2-5 4.9v47.3c0 2.7 2.2 4.9 5 4.9 2.7 0 4.9-2.2 4.9-4.9V41.1l9.2-8.9 18.1 23.1c1 1.4 2.3 2.3 4.2 2.3 2.8 0 5-2.1 5-4.8 0-1.5-.6-2.5-1.4-3.5l-19-23.6zm51.8-1.1c-10.9-2.6-13.4-4.5-13.4-8.9v-.2c0-3.7 3.4-6.7 9.2-6.7 4.4 0 8.6 1.4 13 4.3.8.5 1.6.7 2.6.7 2.6 0 4.7-2 4.7-4.6 0-1.9-1-3.3-2.2-3.9C464.8 2 459.1.2 452 .2c-11.2 0-19.2 6.7-19.2 16.3v.2c0 10.4 6.8 13.9 18.7 16.8 10.5 2.4 12.7 4.6 12.7 8.6v.2c0 4.2-3.9 7.1-10 7.1s-11.1-2.1-15.8-5.8c-.6-.5-1.5-.9-2.9-.9-2.6 0-4.7 2-4.7 4.6 0 1.6.8 3 1.9 3.8 6.3 4.7 13.5 7.1 21.2 7.1 11.8 0 20.1-6.3 20.1-16.8v-.2c.2-9.4-6-13.7-17.9-16.6z"/></svg>