<svg xmlns="http://www.w3.org/2000/svg" viewBox="0 0 310.7 310.7"><circle cx="155.3" cy="155.3" r="155.3"/><g fill="#FFF"><path d="M111.8 183.4h-11.5l-12.9-44.5-12.9 44.5H63L44.3 110h14.3l10.9 46.3L82.3 110h10.3l12.8 46.3 11-46.3h14.3l-18.9 73.4zM178.5 176.4c-4.6 4.8-11.3 7-18.6 7h-25.4V110h25.4c7.3 0 13.9 2.2 18.6 7 7.9 8.2 7.1 18.4 7.1 29.4s.8 21.7-7.1 30zm-9.6-49.1c-2.4-3-5.5-4.5-10.3-4.5h-10.4v47.8h10.4c4.7 0 7.9-1.5 10.3-4.5 2.6-3.3 3-8.6 3-19.7 0-11.2-.4-15.8-3-19.1zM251.6 183.4h-11.5l-12.9-44.5-12.9 44.5h-11.5L184.1 110h14.3l10.9 46.3 12.8-46.3h10.3l12.8 46.3 11-46.3h14.3l-18.9 73.4z"/></g><g fill="gray"><path d="M62.1 207.9l6.9 3.2c.3.1.5.3.6.4.1.1.2.3.2.4 0 .2-.1.3-.2.5-.1.1-.3.2-.5.2h-.3c-.1 0-.3-.1-.5-.2l-7.5-3.5h-.1c-.6-.3-.9-.5-.9-.9s.3-.6.8-.8c.1 0 .1 0 .1-.1l7.5-3.4c.2-.1.3-.1.4-.2.1 0 .2-.1.3-.1.2 0 .3.1.5.2.1.1.2.2.2.4s-.1.3-.2.4c-.1.1-.3.3-.6.4l-6.7 3.1zM76.2 207.3l-1.2 4.5c-.1.2-.2.4-.3.5-.1.1-.3.1-.6.1-.2 0-.4-.1-.5-.2-.1-.1-.2-.3-.3-.6l-2.1-6.8H71c-.3 0-.5-.1-.6-.2-.1-.1-.2-.3-.2-.5s.1-.4.2-.5c.1-.1.3-.2.5-.2h2.5c.3 0 .6 0 .7.1.1.1.2.3.2.5s0 .3-.1.4c-.1.1-.2.2-.3.2-.1 0-.2.1-.4.1h-1l1.6 5.6 1.2-4.1c.1-.2.2-.4.3-.5.1-.1.3-.1.6-.1.2 0 .4.1.5.2.1.1.2.3.3.6l1.2 3.9 1.5-5.6H79.1c-.4 0-.7 0-.9-.1-.2-.1-.2-.3-.2-.5s.1-.4.2-.5c.1-.1.3-.1.7-.1h2.5c.2 0 .3.1.4.2.1.1.1.3.1.5s-.1.4-.2.5c-.1.1-.3.2-.6.2l-2.1 7c-.1.2-.2.4-.3.5-.1.1-.3.1-.5.1s-.4-.1-.5-.2c-.1-.1-.2-.3-.3-.6l-1.2-4.4zM84.2 208.2c0 .9.4 1.6.9 2.1.6.5 1.3.7 2.3.7.7 0 1.5-.2 2.4-.6.9-.4 1.4-.6 1.6-.6.2 0 .3.1.5.2.1.1.2.3.2.4 0 .2-.1.3-.2.5-.1.1-.3.3-.6.4-.6.3-1.3.5-1.9.7-.7.2-1.3.2-2 .2-1.4 0-2.6-.4-3.4-1.2-.9-.8-1.3-1.9-1.3-3.3s.5-2.5 1.4-3.4c.9-.9 2.1-1.3 3.5-1.3 1.3 0 2.4.4 3.3 1.2.9.8 1.3 1.8 1.3 2.9 0 .3-.1.6-.2.7-.1.1-.5.2-1.2.2h-6.6zm0-1.3h6.1c-.1-.7-.4-1.3-.9-1.8s-1.2-.7-1.9-.7c-.8 0-1.5.2-2.1.7-.6.5-1 1.1-1.2 1.8zM96.1 204.8c.3-.4.8-.8 1.3-1 .5-.2 1.1-.3 1.8-.3 1.3 0 2.3.4 3.1 1.3.8.8 1.3 1.9 1.3 3.1 0 1.2-.4 2.3-1.3 3.1-.9.9-1.9 1.3-3.1 1.3-.7 0-1.2-.1-1.7-.3-.5-.2-.9-.6-1.2-1.1v.8c0 .2 0 .3-.1.4-.1.1-.2.1-.3.1h-1.7c-.2 0-.4-.1-.5-.2-.1-.1-.2-.3-.2-.5s.1-.4.2-.5c.1-.1.4-.1.9-.1h.2v-9.6h-.2c-.4 0-.7 0-.9-.1-.2-.1-.2-.3-.2-.5s.1-.4.2-.5c.1-.1.3-.2.6-.2h1.4c.2 0 .3 0 .4.1.1.1.1.2.1.3v4.4zm2.9 6c.9 0 1.6-.3 2.1-.8.5-.6.8-1.3.8-2.2 0-.9-.3-1.6-.8-2.1-.6-.6-1.3-.8-2.1-.8-.9 0-1.6.3-2.1.8-.6.6-.8 1.3-.8 2.2 0 .9.3 1.6.8 2.2.5.4 1.3.7 2.1.7zM112.5 212.1c-.1 0-.2 0-.3-.1-.1-.1-.1-.2-.1-.4v-.8c-.4.5-.8.8-1.4 1.1-.6.3-1.2.4-1.8.4-1.2 0-2.2-.4-3-1.3-.8-.8-1.2-1.9-1.2-3.1 0-1.3.4-2.4 1.3-3.2.8-.9 1.9-1.3 3.2-1.3.6 0 1.2.1 1.7.3.5.2 1 .6 1.3 1v-3.6h-.5c-.5 0-.9 0-1.1-.1-.2-.1-.2-.3-.2-.5s.1-.4.2-.5c.1-.1.3-.2.6-.2h1.9c.2 0 .3 0 .4.1.1.1.1.2.1.3v10.6h.4c.3 0 .5.1.7.2.1.1.2.3.2.5s-.1.4-.2.5c-.1.1-.3.2-.5.2h-1.7zm-6.2-4.2c0 .9.3 1.6.8 2.1.6.6 1.3.8 2.1.8.9 0 1.6-.3 2.1-.9.6-.6.8-1.3.8-2.2 0-.9-.3-1.6-.8-2.1-.6-.6-1.3-.8-2.1-.8-.9 0-1.6.3-2.1.9-.5.5-.8 1.3-.8 2.2zM117.6 208.2c0 .9.4 1.6.9 2.1.6.5 1.3.7 2.3.7.7 0 1.5-.2 2.4-.6.9-.4 1.4-.6 1.6-.6.2 0 .3.1.5.2.1.1.2.3.2.4 0 .2-.1.3-.2.5-.1.1-.3.3-.6.4-.6.3-1.3.5-1.9.7-.7.2-1.3.2-2 .2-1.4 0-2.6-.4-3.4-1.2-.9-.8-1.3-1.9-1.3-3.3s.5-2.5 1.4-3.4c.9-.9 2.1-1.3 3.5-1.3 1.3 0 2.4.4 3.3 1.2.9.8 1.3 1.8 1.3 2.9 0 .3-.1.6-.2.7-.1.1-.5.2-1.2.2h-6.6zm.1-1.3h6.1c-.1-.7-.4-1.3-.9-1.8s-1.2-.7-1.9-.7c-.8 0-1.5.2-2.1.7s-1 1.1-1.2 1.8zM127.9 211.4v-1.7c0-.3.1-.5.2-.6.1-.1.3-.2.5-.2.3 0 .5.2.6.5.1.2.2.4.3.5.3.3.6.6 1.2.8.5.2 1.1.3 1.7.3.7 0 1.2-.1 1.6-.4.4-.3.6-.6.6-1.1 0-.4-.2-.8-.5-.9-.3-.2-.9-.3-1.7-.3h-.5c-1.3 0-2.2-.2-2.9-.7-.7-.4-1-1.1-1-1.9 0-.8.3-1.5 1-1.9.7-.5 1.6-.7 2.8-.7.5 0 1 .1 1.5.2s.8.2.8.2c.1 0 .2-.1.4-.2s.4-.2.6-.2c.2 0 .4.1.5.2.1.2.2.4.2.7v1.1c0 .3 0 .6-.1.7-.1.1-.3.2-.5.2s-.4-.2-.7-.5l-.5-.5c-.3-.3-.7-.5-1.1-.7-.4-.1-.8-.2-1.3-.2-.6 0-1.1.1-1.4.4-.4.3-.5.6-.5 1s.2.7.6.8c.4.2 1.2.3 2.4.3 1.3 0 2.3.3 2.9.7.6.4.9 1.1.9 2 0 .8-.3 1.5-1 2s-1.6.8-2.7.8c-.4 0-.8 0-1.2-.1-.4-.1-1-.2-1.7-.3-.2.1-.4.3-.6.3-.2.1-.3.1-.4.1-.2 0-.4-.1-.5-.2-.5 0-.5-.2-.5-.5zM143 210.8h3c.2 0 .4.1.5.2.1.1.2.3.2.5 0 .3-.1.4-.2.5-.1.1-.3.1-.6.1h-7.3c-.3 0-.4-.1-.6-.2-.1-.1-.2-.3-.2-.5s.1-.4.2-.5c.1-.1.3-.2.6-.2h2.9v-6h-1.8c-.3 0-.5-.1-.6-.2-.1-.1-.2-.3-.2-.5s.1-.4.2-.5c.1-.1.3-.2.6-.2h2.7c.2 0 .3 0 .4.1.1.1.1.2.1.3v7.1zm-1.7-10.1c0-.7.1-1.1.2-1.3.1-.2.4-.3.8-.3s.6.1.8.2c.1.1.2.5.2 1s-.1.9-.2 1c-.1.1-.4.2-.8.2s-.7-.1-.8-.2c-.2 0-.2-.2-.2-.6zM156.1 211.6c0 .9 0 1.5-.1 1.9-.1.4-.2.7-.5 1-.3.5-.8.8-1.5 1.1-.6.2-1.4.4-2.2.4-.7 0-1.2-.1-1.6-.2-.3-.1-.5-.4-.5-.7 0-.2.1-.4.2-.5.2-.1.3-.2.6-.2.2 0 .4 0 .8.1.3 0 .6.1.8.1.9 0 1.6-.2 2-.6.4-.4.6-1.2.6-2.2v-1.1c-.4.4-.8.8-1.3 1-.5.2-1 .3-1.6.3-1.2 0-2.1-.4-2.9-1.2-.8-.8-1.2-1.8-1.2-3s.4-2.2 1.2-3c.8-.8 1.8-1.2 2.9-1.2.5 0 1 .1 1.4.3.5.2.9.4 1.4.8v-.7c0-.1 0-.2.1-.3.1-.1.2-.1.4-.1h1.4c.2 0 .4.1.6.2.1.1.2.3.2.5s-.1.4-.2.5c-.2.1-.5.2-.9.2h-.2v6.6zm-4.1-6.8c-.8 0-1.5.3-2 .8s-.8 1.2-.8 2 .3 1.4.8 2c.5.5 1.2.8 2 .8s1.5-.3 2-.8.8-1.2.8-2-.3-1.4-.8-2c-.5-.5-1.1-.8-2-.8zM160 210.8v-6h-.2c-.4 0-.7-.1-.9-.2-.2-.1-.2-.3-.2-.5s.1-.4.2-.5c.1-.1.3-.2.6-.2h1.3c.2 0 .3 0 .4.1.1.1.1.2.1.3v.6c.5-.4.9-.7 1.4-.9.4-.2.9-.3 1.4-.3.9 0 1.7.3 2.2.9.5.6.8 1.4.8 2.4v4.2h.4c.3 0 .5.1.7.2.1.1.2.3.2.5s-.1.4-.2.5c-.1.1-.4.2-.8.2h-2.1c-.4 0-.7 0-.8-.1-.1-.1-.2-.3-.2-.5s.1-.4.2-.5c.1-.1.4-.1.7-.1h.3V207c0-.7-.2-1.3-.5-1.7-.3-.4-.8-.6-1.4-.6-.6 0-1.2.2-1.7.6-.5.4-.7 1-.7 1.6v3.9h.3c.4 0 .6 0 .8.1.1.1.2.3.2.5 0 .3-.1.4-.2.5-.1.1-.4.1-.8.1h-2c-.3 0-.4-.1-.6-.2-.1-.1-.2-.3-.2-.5s.1-.4.2-.5c.1-.1.4-.1.9-.1h.2zM174.5 207.3l-1.2 4.5c-.1.2-.2.4-.3.5-.1.1-.3.1-.6.1-.2 0-.4-.1-.5-.2-.1-.1-.2-.3-.3-.6l-2.1-6.8h-.1c-.3 0-.5-.1-.6-.2-.1-.1-.2-.3-.2-.5s.1-.4.2-.5c.1-.1.3-.2.5-.2h2.5c.3 0 .6 0 .7.1.1.1.2.3.2.5s0 .3-.1.4c-.1.1-.2.2-.3.2-.1 0-.2.1-.4.1h-1l1.6 5.6 1.2-4.1c.1-.2.2-.4.3-.5.1-.1.3-.1.6-.1.2 0 .4.1.5.2.1.1.2.3.3.6l1.2 3.9 1.5-5.6h-.5c-.4 0-.7 0-.9-.1-.2-.1-.2-.3-.2-.5s.1-.4.2-.5c.1-.1.3-.1.7-.1h2.5c.2 0 .3.1.4.2.1.1.1.3.1.5s-.1.4-.2.5c-.1.1-.3.2-.6.2l-2.1 7c-.1.2-.2.4-.3.5-.1.1-.3.1-.5.1s-.4-.1-.5-.2c-.1-.1-.2-.3-.3-.6l-1.4-4.4zM182.6 208.2c.1.9.4 1.6.9 2.1.6.5 1.3.7 2.3.7.7 0 1.5-.2 2.4-.6.9-.4 1.4-.6 1.6-.6.2 0 .3.1.5.2.1.1.2.3.2.4 0 .2-.1.3-.2.5-.1.1-.3.3-.6.4-.6.3-1.3.5-1.9.7-.7.2-1.3.2-2 .2-1.4 0-2.6-.4-3.4-1.2-.9-.8-1.3-1.9-1.3-3.3s.5-2.5 1.4-3.4c.9-.9 2.1-1.3 3.5-1.3 1.3 0 2.4.4 3.3 1.2.9.8 1.3 1.8 1.3 2.9 0 .3-.1.6-.2.7-.1.1-.5.2-1.2.2h-6.6zm0-1.3h6.1c-.1-.7-.4-1.3-.9-1.8s-1.2-.7-1.9-.7c-.8 0-1.5.2-2.1.7-.6.5-1 1.1-1.2 1.8zM193.7 208.2c.1.9.4 1.6.9 2.1.6.5 1.3.7 2.3.7.7 0 1.5-.2 2.4-.6.9-.4 1.4-.6 1.6-.6.2 0 .3.1.5.2.1.1.2.3.2.4 0 .2-.1.3-.2.5-.1.1-.3.3-.6.4-.6.3-1.3.5-1.9.7-.7.2-1.3.2-2 .2-1.4 0-2.6-.4-3.4-1.2-.9-.8-1.3-1.9-1.3-3.3s.5-2.5 1.4-3.4c.9-.9 2.1-1.3 3.5-1.3 1.3 0 2.4.4 3.3 1.2.9.8 1.3 1.8 1.3 2.9 0 .3-.1.6-.2.7-.1.1-.5.2-1.2.2h-6.6zm.1-1.3h6.1c-.1-.7-.4-1.3-.9-1.8s-1.2-.7-1.9-.7c-.8 0-1.5.2-2.1.7-.7.5-1.1 1.1-1.2 1.8zM206.3 208.5v2.8c0 .2-.1.5-.2.6-.1.1-.2.2-.4.2H204c-.2 0-.4-.1-.6-.2-.1-.1-.2-.3-.2-.5s.1-.4.2-.5c.1-.1.5-.1.9-.1h.4v-9.6h-.4c-.5 0-.9 0-1-.1-.2-.1-.2-.3-.2-.5s.1-.4.2-.5c.1-.1.3-.2.6-.2h1.8c.2 0 .3 0 .4.1.1.1.1.2.1.3v6.7l2.7-2.3c-.2-.1-.4-.2-.5-.3-.1-.1-.1-.2-.1-.4s.1-.3.2-.4c.1-.1.3-.1.6-.1h2.5c.2 0 .4.1.5.2.1.1.2.3.2.5 0 .4-.3.6-.9.7h-.3c-.3 0-.5.1-.8.3-.3.2-.6.4-.9.7l-1.4 1.2 3.6 3.9h.8c.3 0 .5 0 .6.1.1.1.2.3.2.5s-.1.4-.2.5c-.1.1-.3.2-.6.2H210c-.3 0-.5 0-.6-.1-.1-.1-.2-.2-.2-.5 0-.2.1-.3.2-.4.1-.1.3-.2.5-.3l-2.8-3-.8.5zM218.5 201.2h-1.6c-.6 0-1 0-1.1-.1-.2-.1-.2-.3-.2-.5s.1-.4.2-.5c.1-.1.3-.2.6-.2h3.1c.2 0 .3 0 .4.1.1.1.1.2.1.3v10.6h2.9c.2 0 .4.1.5.2.1.1.2.3.2.5 0 .3-.1.4-.2.5-.1.1-.3.1-.6.1h-6.9c-.2 0-.4-.1-.6-.2-.1-.1-.2-.3-.2-.5s.1-.4.2-.5c.1-.1.3-.2.6-.2h2.6v-9.6zM228.6 214.5h.4c.5 0 .8 0 .9.1.2.1.2.3.2.5s-.1.4-.2.5c-.1.1-.3.2-.6.2H225c-.3 0-.5 0-.6-.2-.1-.1-.2-.3-.2-.5s.1-.4.2-.5c.1-.1.3-.2.5-.2h2l1.5-3-3.4-6.7c-.4 0-.7-.1-.8-.2-.2-.1-.2-.3-.2-.5s.1-.4.2-.5c.1-.1.3-.2.6-.2h2.6c.4 0 .6 0 .7.1.1.1.2.3.2.5s-.1.4-.2.5c-.2.1-.4.2-.9.2h-.3l2.5 5.2 2.6-5.2h-.4c-.4 0-.7-.1-.9-.2-.2-.1-.2-.3-.2-.5s.1-.4.2-.5c.1-.1.4-.1.7-.1h2.3c.3 0 .4.1.6.2.1.1.2.3.2.5s-.1.4-.2.5c-.1.1-.4.2-.7.2l-5 9.8zM236.9 212.3c-.1.3-.3.5-.4.6-.1.1-.3.2-.4.2-.2 0-.3-.1-.5-.2-.1-.1-.2-.3-.2-.5v-.2c0-.1 0-.1.1-.2l5.9-12.6c.2-.3.3-.5.4-.7.1-.1.3-.2.4-.2.2 0 .3.1.5.2.1.1.2.3.2.5v.2c0 .1 0 .1-.1.2l-5.9 12.7zM252.7 207.9l-6.9-3.1c-.3-.1-.5-.3-.6-.4-.1-.1-.2-.3-.2-.4 0-.2.1-.3.2-.4.1-.1.3-.2.4-.2.1 0 .2 0 .3.1.1 0 .3.1.4.2l7.5 3.4s.1 0 .1.1c.6.2.8.5.8.8 0 .3-.3.6-.8.8-.1 0-.1 0-.1.1l-7.5 3.5c-.3.1-.6.2-.7.2-.2 0-.3-.1-.4-.2-.1-.1-.2-.3-.2-.5s.1-.3.2-.4c.1-.1.3-.3.6-.4l6.9-3.2z"/></g></svg>