<svg width="45" height="45" viewBox="0 0 45 45" xmlns="http://www.w3.org/2000/svg"><title>rs-rocket</title><g fill="none"><path d="M8.909 30.831c-1.142 2.696-2.323 5.596-3.72 8.779 3.183-1.397 6.082-2.578 8.779-3.72l-5.059-5.059z" fill="#0186CB"/><path d="M22.936 15.018a68.668 68.668 0 0 0-8.352 10.121l-.457-.458c1.778-4.184 4.611-8.503 8.309-12.2 5.917-5.916 13.097-9.713 19.098-10.26-6.384 3.001-12.987 7.186-18.598 12.797M44.715.088c-6.904-.743-16.151 3.218-23.802 10.869a45.38 45.38 0 0 0-3.705 4.19l-7.023-.217L0 27.99l.651.633 9.766.06.074-.105-.053.221 5.565 5.564.21-.05-.097.069.061 9.767.631.651 13.058-10.184-.216-7.019a45.571 45.571 0 0 0 4.192-3.708C41.495 16.238 45.456 6.99 44.715.088" fill="#929191"/></g></svg>