<svg xmlns="http://www.w3.org/2000/svg" viewBox="-78 134 246 246" class="sa-logo"><title>Suit &amp; Axe</title><desc>Designer shirts for tall men</desc><g class="axe"><path class="st1" d="M9.3 201.2c-1.2-2.1-5.4-9.2-5.4-9.2s-2.6 1.1-4.6 2c-.3.1-.9.4-1.6.8-.4-.7-.6-1.2-.6-1.2s-5.7 2.8-7.9 3.9-7.7 4.5-7.7 4.5.2.3.5.9c-2.7 1.5-10.1 6.1-14.7 8.1-4.7 2.1-12.7 5.5-12.7 5.5s2.7 4.6 3.5 6c.8 1.4 1.4 2.5 7.1 10.3 5.7 7.8 11.9 13.4 11.9 13.4s3.8-8.7 4.9-14.3c1.1-5.7 3.2-10.6 3.9-11.7.7-1.1 1.9-1.2 3.2-2 .2-.1.5-.3.8-.5.4.7.6 1.2.9 1.6 1.6 2.9 10.5 19.4 19 33.7 4.8 8.1 12.6 20 18.9 29.7 4.8 7.3 8.7 13.3 10 15.5 3 5 11.4 19.3 14.3 25.7 1.5 3.4 3 10.4 3.7 13.7.6 3.3 1.2 7.3 2.1 8.9.9 1.6 15.4 4.4 16.8 3.5 1.5-.9 1.4-3.1 1.4-4.6 0-1.5-5.7-10.6-9.8-19.4-4.1-8.8-18.6-34-20.2-36.8-.8-1.4-4.3-6.7-8.1-12.4-4-6.1-8.3-12.6-9.6-14.8-17.4-28.9-14.1-29.4-15.2-32.6-1.1-3.2-3.3-13.9-3.8-14.8-.5-1-3.6-3.8-4.3-4.9-.1-.1-.2-.3-.3-.5 3.1-1.4 5.8-2.5 5.8-2.5s-1-3.4-2.2-5.5z"/><path class="st1" d="M80.7 201.2c1.2-2.1 5.4-9.2 5.4-9.2s2.6 1.1 4.6 2c.3.1.9.4 1.6.8.4-.7.6-1.2.6-1.2s5.7 2.8 7.9 3.9 7.7 4.5 7.7 4.5-.2.3-.5.9c2.7 1.5 10.1 6.1 14.7 8.1 4.7 2.1 12.7 5.5 12.7 5.5s-2.7 4.6-3.5 6c-.8 1.4-1.4 2.5-7.1 10.3-5.7 7.8-11.9 13.4-11.9 13.4s-3.8-8.7-4.9-14.3c-1.1-5.7-3.2-10.6-3.9-11.7-.7-1.1-1.9-1.2-3.2-2-.2-.1-.5-.3-.8-.5-.4.7-.6 1.2-.9 1.6-1.6 2.9-10.5 19.4-19 33.7-4.8 8.1-12.6 20-18.9 29.7-4.8 7.3-8.7 13.3-10 15.5-3 5-11.4 19.3-14.3 25.7-1.5 3.4-3 10.4-3.7 13.7-.6 3.3-1.2 7.3-2.1 8.9-.9 1.6-15.4 4.4-16.8 3.5-1.5-.9-1.4-3.1-1.4-4.6 0-1.5 5.7-10.6 9.8-19.4 4.1-8.8 18.6-34 20.2-36.8.8-1.4 4.3-6.7 8.1-12.4 4-6.1 8.3-12.6 9.6-14.8 17.4-28.9 14.1-29.4 15.2-32.6 1.1-3.2 3.3-13.9 3.8-14.8.5-1 3.6-3.8 4.3-4.9.1-.1.2-.3.3-.5-3.1-1.4-5.8-2.5-5.8-2.5s1-3.4 2.2-5.5z"/></g><g class="buttons"><circle class="st1" cx="45" cy="254" r="5"/><circle class="st1" cx="45" cy="229" r="5"/><circle class="st1" cx="45" cy="204" r="5"/></g><g class="bowtie"><path class="st1" d="M39 174h12c1.1 0 2 .9 2 2v7c0 1.1-.9 2-2 2H39c-1.1 0-2-.9-2-2v-7c0-1.1.9-2 2-2zm32.2-8.1c1-.5 1.8 0 1.8 1.1v25c0 1.1-.8 1.6-1.8 1.1l-16.3-8.6c-.5-.3-.9-.9-.9-1.5v-7c0-.6.4-1.2.9-1.5l16.3-8.6zM17 192c0 1.1.8 1.6 1.8 1.1l16.3-8.6c.5-.3.9-.9.9-1.5v-7c0-.6-.4-1.2-.9-1.5l-16.3-8.6c-1-.5-1.8 0-1.8 1.1v25z"/></g></svg>