<svg xmlns="http://www.w3.org/2000/svg" viewBox="0 0 575.4 414.6"><style>.st0{fill:#2f2f2f}.st1{fill:#302922}.st2{fill:#c64635}.st3{fill:#e3c356}.st4{fill:#020202}.st5{fill:#030303}.st6{fill:#040404}.st7{fill:#050505}</style><path class="st0" d="M0 175.7l16.1-1.8 12.1 25 6.3-27 16.2-1.8 8.6 77.8-16.1 1.8-4.6-41.7-6.3 26.5h-.2l-12-24.4 4.6 41.7-16 1.8L0 175.7zm68.3 48L63.7 169l16.7-1.4 4.7 55.9c.5 5.6 2.6 7.6 5.4 7.4 2.8-.2 4.6-2.6 4.1-8.2l-4.6-56 16.7-1.4 4.6 54.6c1.4 17.1-7.2 25.4-19.5 26.4-12.4 1.1-22.1-5.6-23.5-22.6zm51.3-59.3l16.7-1c7.8-.5 14.7 1.1 19.6 5.4 4.4 4 7.2 9.9 7.7 18.4l.1 1.1c.7 10.7-3.1 17.1-7.9 21.3l12.3 30.3-17.9 1.1-9.5-25-1.3.1 1.5 25.5-16.6 1-4.7-78.2zm19.5 37.6c4.8-.3 8.1-3.5 7.6-11.6l-.1-1.7c-.5-8.4-4.2-10.7-9-10.4h-.4l1.4 23.7h.5zm34.7-40.8l16.2-.6 10.2 25.8 8.2-26.5 16.3-.6 2.8 78.2-16.2.6-1.5-41.9-8.3 25.9h-.2L191.2 197l1.5 41.9-16.1.6-2.8-78.3zm64.6 53l-.9-54.9 16.8-.3.9 56.1c.1 5.6 2 7.8 4.9 7.7 2.8 0 4.8-2.3 4.7-7.9l-.9-56.1 16.8-.3.9 54.8c.3 17.1-8.9 24.9-21.3 25.1-12.5.3-21.6-7.1-21.9-24.2zm55.7-55.5l16.8.3c7.8.1 14.6 2.3 19.1 6.9 4.1 4.3 6.4 10.4 6.3 18.9v1.1c-.2 10.7-4.4 16.8-9.5 20.6l9.9 31.1-17.9-.3-7.5-25.6H310l-.4 25.5-16.7-.3 1.2-78.2zm16.6 39c4.8.1 8.3-2.9 8.5-10.9v-1.7c.1-8.4-3.4-11-8.2-11.1h-.4l-.4 23.7h.5zm48.3-37.9l19.2.7 12.1 79-16.8-.6-1.6-14.2-11.7-.4-2.6 14-16.3-.6 17.7-77.9zm11.3 50.5l-2.8-24.7-4.7 24.5 7.5.2zm35.2-32.4l-10.3-.6.9-16 37.3 2.1-.9 16-10.3-.6-3.4 62.2-16.8-.9 3.5-62.2zm39.1-13.6l16.7 1.2-5.6 78.1-16.7-1.2 5.6-78.1zm24.9 43.4l.4-4.9c2.3-25.4 12.3-37.2 26.5-35.9 14 1.3 21.8 14.6 19.5 40l-.4 4.9c-2.3 25.3-12.3 37.2-26.4 35.9-14.1-1.2-21.9-14.7-19.6-40zm28.9 2.7l.5-5.2c1.6-18.3-.2-22.6-3.9-22.9-3.7-.3-6.4 3.6-8 21.8l-.5 5.2c-1.7 18.4.3 22.6 4 22.9 3.7.4 6.3-3.4 7.9-21.8zm32.9-38.7l16 1.8 8.1 36.5 4-35.1 16 1.8-8.9 77.8-15.2-1.7-8.6-38.5-4.2 37-16-1.8 8.8-77.8zM201.5 286.2h3.5l11.3 16.9 11.3-16.9h3.5v31h-3.5v-25.1l-11.3 16.6h-.2l-11.3-16.5v25h-3.4v-31zm54.3-.2h3.3l14.1 31.2h-3.8l-3.6-8.2H249l-3.7 8.2h-3.6l14.1-31.2zm8.6 19.8l-7-15.7-7.1 15.7h14.1zm19.3-19.6h3.5V314h17.4v3.2h-20.9v-31zm35.5 3.3h-10.4v-3.2h24.3v3.2h-10.4v27.7h-3.5v-27.7zm22.2 23.2l2.2-2.6c3.2 2.9 6.3 4.4 10.6 4.4 4.2 0 6.9-2.2 6.9-5.3v-.1c0-2.9-1.5-4.5-8-5.9-7.1-1.5-10.4-3.8-10.4-8.9v-.1c0-4.9 4.3-8.4 10.2-8.4 4.5 0 7.7 1.3 10.9 3.8l-2 2.7c-2.9-2.3-5.7-3.4-8.9-3.4-4 0-6.6 2.2-6.6 5v.1c0 2.9 1.6 4.6 8.4 6 6.9 1.5 10.1 4 10.1 8.8v.1c0 5.3-4.4 8.8-10.6 8.8-5-.1-9.1-1.7-12.8-5z"/><path class="st1" d="M300.8 384.9c-.1 0-.3 0-.3.1-.2.4-.6.2-.9.1-.2-.1-.5-.1-.7-.2-1-.1-2-.2-3-.4-1.2-.2-2.5-.2-3.7 0-.4.1-.7.1-1.1.2-.2 0-.4 0-.4.1-.2.3-.5.3-.8.2-.2-.1-.5-.1-.7-.1-.9-.1-1.9-.1-2.8-.1-1.2-.1-2.3-.1-3.5.1-.6.1-1.1.2-1.7.3-.1 0-.3.1-.4.2-.2.3-.4.2-.6.2-.6 0-1.2-.1-1.8-.1-.7 0-1.4.1-2 0-1.2 0-2.4.1-3.6.4-.5.1-1 .3-1.5.4-.6.2-.7.5-.4 1 .2.3.4.5.6.8-.5 0-1 .1-1.6.1l-2.1.3c-1.1.1-2.1.3-3.2.7-1 .4-2 .7-3 .9-6.1 1.2-12.1 2.9-18 4.9-.2.1-.3.1-.5.2-.3.2-.5.5-.6.8 0 .3.2.5.6.4.2 0 .4-.1.6-.2 6.1-2.1 12.2-3.7 18.5-5 .4-.1.6 0 .8.3.2.3.4.7.7 1 .4.4.8.7 1.2 1.1.1.1.2.3.4.5-.1.1-.2.1-.2.2-.2.1-.3.1-.5.2-1.7.5-3.2 1.5-4.7 2.5-.1.1-.2.2-.3.2-.3.2-.6.5-.9.7-.6.5-1.3 1-1.9 1.6-.6.7-1.3 1.1-2.1 1.3-6 1.5-11.9 3.5-17.7 5.8-.2.1-.3.1-.5.2-.3.2-.5.5-.5.8 0 .3.1.5.5.4.2 0 .4-.1.6-.2 2.3-.9 4.7-1.8 7-2.6 3.7-1.3 7.5-2.4 11.3-3.3.4-.1.7-.1 1 0 .6.2 1.3.5 2 .6.8.2 1.6.2 2.4.4 1.4.3 2.8.5 4.3.3h.4c-.1.4-.3.7-.6 1-.5.7-1.2 1.4-1.5 2.3 0 .1-.1.2-.1.2-.3.7-.8.9-1.5 1.1-6.1 1.2-12.1 2.9-18 4.9-.2.1-.4.1-.6.2-.3.2-.5.5-.5.8 0 .3.2.5.5.4.2 0 .4-.1.6-.2 6.3-2.2 12.8-3.9 19.3-5.2.3-.1.7-.1 1-.1.6-.1 1.3 0 1.9-.1 1.2-.2 2.4-.5 3.7-.6.7-.1 1.4-.3 2.1-.5 0 .1-.1.1-.1.2-.3.5-.5.9-.8 1.4-.2.3-.1.6.2.7h1.4c.7-.1 1.5-.1 2.2-.2.8-.1 1.7-.4 2.5-.5 1.1-.2 2.2-.3 3.2-.7.1 0 .2 0 .3-.1.2.4.5.4.9.4h3c1-.1 2-.3 2.9-.4.9-.1 1.8-.3 2.7-.4.1 0 .3 0 .4.1.2.2.4.2.6.2.4 0 .7.1 1.1.1.7 0 1.5.1 2.2.1.8 0 1.6-.1 2.3-.2 1.1-.1 2.2 0 3.3-.3.1 0 .3 0 .4.1.2.3.4.3.7.3.3.1.7.1 1 .2.7.1 1.4.2 2.1.2h3.8c.6 0 1.2 0 1.8-.1 1.5-.3 3-.5 4.5-.8 1.3-.3 2.5-.9 3.5-1.6.9-.6 1.8-1.4 2.6-2.1.2-.1.3-.2.5-.3.5-.4 1-.7 1.4-1.2.6-.7 1-1.4 1.5-2.1.2-.3.4-.4.8-.3.6.1 1.1.2 1.7.4 8.1 1.9 16.1 4.4 23.8 7.6.2.1.4.2.6.2.4.1.7 0 .7-.4 0-.3-.3-.7-.7-.9-.1-.1-.3-.1-.4-.2-8.3-3.4-16.9-6.1-25.5-8-.4-.1-.7-.3-.9-.7-.4-.8-.9-1.7-1.3-2.5-.5-.8-1-1.5-1.7-2.1-.2-.1-.3-.3-.4-.5-1.2-1.5-2.4-2.9-3.9-4-.3-.3-.7-.5-1-.8-1.2-.8-2.4-1.3-3.7-1.9-1.1-.5-2.3-1-3.5-1.2-.8-.2-1.6-.3-2.4-.4-1.2-.3-2.3-.4-3.5-.4-.7.6-1.2.6-1.8.6zm-34.7 17.5c-.7 0-1.4 0-2 .1h-1.8c-1.5-.2-2.9-.6-4.2-1-.2-.1-.4-.1-.6-.2-.4-.2-.4-.4 0-.7.3-.3.6-.6.9-.8 1.2-.9 2.5-1.9 3.7-2.8.3-.2.7-.4 1.1-.6l2.4-.9c.4-.2.8-.1 1.1.1.7.7 1.6 1.1 2.6 1.5.9.3 1.7.6 2.6.9l.1.1c-.3.1-.5.3-.7.4-1.4.9-2.7 1.8-3.8 2.9l-.6.6c-.4.2-.6.4-.8.4zM264 408c-.3 0-.4-.2-.2-.5s.5-.6.7-.9c.6-.8 1.2-1.6 1.9-2.4 0-.1.1-.1.1-.2.3-.8 1.1-1.4 1.7-2 .4-.4.8-.6 1.2-.9.8-.6 1.6-1.2 2.4-1.7.5-.3 1-.6 1.5-.8.3-.2.6-.2.9-.1.9.2 1.8.3 2.7.3.3 0 .6.1 1 .2.7.1 1.3 0 2-.1l-.1.1c-1 .5-1.9 1.2-2.8 2-.5.4-1 .9-1.4 1.4l-2.1 2.7c-.1.2-.2.3-.4.4 0 0 0 .1-.1.1-.1.1-.2.2-.3.4-.1.2-.3.4-.4.5-.4.1-.8.2-1.3.3-.9.2-1.8.4-2.6.5-.6.1-1.3.2-1.9.3-.7.1-1.4.3-2.1.4h-.4zm55.3-8.6c.9.2 1.8.5 2.7.8.1 0 .2.2.4.3-.1.1-.1.2-.2.3-1.1 1.1-2.2 2.3-3.3 3.4-.6.6-1.3 1.1-2 1.6-.3.2-.7.3-1.1.5-.6.2-1.2.4-1.9.5-.6.1-1.1.3-1.7.4-.8.3-1.7.4-2.6.4-.3 0-.6.1-.9.1-.4 0-.8.1-1.2.1-.3 0-.7.1-1 0l-3-.3c-.1 0-.2 0-.3-.1-.3-.1-.5-.3-.5-.6-.1-.4 0-.8.3-1.1.6-.8 1.3-1.5 1.9-2.3.2-.2.3-.4.4-.6.2-.2.4-.5.7-.7 1-.6 2-1.3 3-1.8.9-.5 2-.8 3.1-1.1.2-.1.4-.1.6-.2.6-.3 1.2-.3 1.9-.3 1.6.1 3.1.4 4.7.7zm-9.2-1.4c.4 0 .6.2.9.6-.2.1-.5.2-.7.2-1.1.2-2.1.7-3 1.2-.7.4-1.4.8-2 1.4-.8.8-1.7 1.6-2.3 2.5-.4.5-.8 1-1.2 1.6-.1.2-.3.4-.4.6-.1.3-.3.4-.5.5-.1 0-.2.1-.4.1-.7.1-1.5.3-2.3.4-1.5.2-2.9.3-4.4.1-.9-.1-1.3-.9-.8-1.7.6-.8 1.2-1.6 1.8-2.3.1-.1.1-.2.2-.2.5-.9 1.3-1.4 2.1-2 1.7-1.3 3.7-2.2 5.7-2.9 1.1-.4 2.3-.5 3.5-.4 1 0 2 .1 3 .2.3 0 .5.1.8.1zm-26.1 9.6c-.7 0-1.1-.4-.9-1.1.1-.5.4-1 .7-1.4.7-.8 1.3-1.7 1.9-2.5.2-.3.4-.5.7-.7 1-.8 2.1-1.6 3.2-2.3.6-.4 1.2-.7 1.8-1 1-.5 2-.9 3.1-1.1.8-.1 1.5-.2 2.3-.3h2.5c.5 0 .9 0 1.4.1.2 0 .4.2.6.3v.1c-.3.1-.6.2-.8.3-1 .3-2 .7-2.8 1.3-.2.2-.5.3-.7.5-.8.5-1.6 1.2-2.2 1.9-.1.2-.3.3-.4.5-.4.4-.8.9-1.1 1.4-.3.5-.6.9-.9 1.3-.2.3-.5.6-.6 1-.1.2-.2.3-.4.4-.2.1-.4.1-.7.2-.5.1-1 .2-1.5.4-.3.1-.6.1-.8.1-.5.1-.9.2-1.4.2-1.3.3-2.2.3-3 .4zm7.2-9.9c-.2.1-.4.2-.7.3-1.1.4-2.1.9-3 1.6-.7.5-1.4 1-2 1.6-.8.9-1.7 1.8-2.3 2.8-.4.6-.8 1.1-1.2 1.7-.1.2-.3.4-.4.7-.1.3-.3.4-.5.5-.2.1-.4.2-.6.2-.7.2-1.3.4-2 .6-1 .2-2 .4-3.1.6-.4.1-.9.1-1.3.1h-.5c-.7-.1-.9-.8-.5-1.4.5-.7 1-1.5 1.5-2.2.4-.6.8-1.1 1.2-1.7.2-.2.3-.4.5-.6 1.1-.9 2.1-1.7 3.2-2.6.5-.4 1.1-.8 1.8-1l.6-.3c1.8-1 3.7-1.5 5.6-1.6.9 0 1.7-.1 2.6-.2.5.3.9.4 1.1.9zm-8.9-.8c-.3.1-.7.1-1 .2-.4.1-.8.2-1.1.2-.7.1-1.4.2-2 .3-1.1.1-2.2.1-3.2-.2-.7-.2-1.5-.3-2.2-.4-1.2-.3-2.2-.7-3.2-1.2-1.2-.4-2.2-1.2-3-2-.8-.7-1.4-1.5-2.2-2.2-.1-.1-.1-.1-.1-.2-.2-.3-.2-.5.2-.7.6-.2 1.1-.5 1.7-.6.5-.2 1-.2 1.5-.4 1.1-.2 2.1-.4 3.2-.3h1.4c.2.2.3.4.4.6.1.2.3.4.4.5l.3.3c.2.2.3.5.5.7.7.6 1.3 1.4 2.1 1.9 1.4.9 2.8 1.8 4.5 2.2.6.1 1.3.3 1.9.4.1 0 .2 0 .2.1.1.1.2.2.2.4-.1.3-.3.3-.5.4zm24.8-10.3c1.3.3 2.6.7 3.9 1.2.6.2 1.1.6 1.7.9.5.2 1 .5 1.5.7.3.2.6.3.9.5l.9.6c.7.3 1.1.9 1.6 1.4 1.2 1.3 2.1 2.7 3.2 4.1.5.6.9 1.3 1.3 1.9.1.1.1.2.2.4-.2.1-.4.1-.6.1-.6 0-1.3.1-1.9 0-1.7-.1-3.5-.5-5.2-1.1-.4-.1-.7-.3-1.1-.5-1.8-.7-3.4-1.6-4.9-2.7-.9-.7-1.8-1.5-2.7-2.2-.2-.1-.3-.3-.4-.4-.8-1.2-1.7-2.3-2.5-3.4-.3-.4-.2-.8-.1-1.2.1-.4.5-.5.9-.4 1.1-.2 2.2-.1 3.3.1zm-10.8-.7c.9.1 1.8.1 2.7.5l1.2.3c.2.1.5.1.7.2.1.1.3.2.4.4.2.7.8 1.2 1.1 1.8.2.3.4.7.6 1 0 .1.1.2.1.2 1.1 1.3 2.1 2.7 3.6 3.7.5.3 1 .8 1.5 1.1.6.4 1.3.7 1.9 1 .2.1.5.3.7.4-.4.5-.9.5-1.4.5-1.2-.1-2.5-.2-3.7-.5-1-.2-2-.6-3-1-.5-.3-1.1-.5-1.6-.7-1.4-.6-2.7-1.5-3.9-2.4-.3-.2-.6-.5-.9-.7-.4-.3-.7-.7-1-1.1-.6-.8-1.2-1.6-1.8-2.3-.4-.5-.6-1-.7-1.7-.1-.4.1-.7.5-.7h3zm-9.6.2c.9.1 1.7 0 2.6.3.4.1.8.1 1.3.2s.8.3 1 .7c.3.5.7 1 1 1.5l.6.9c.1.1.1.2.2.3 1.1 1.3 2.1 2.6 3.6 3.5.3.2.5.4.8.6.8.6 1.7 1 2.6 1.4.3.1.5.2.8.4 0 .3-.1.5-.4.5-1.9.1-3.9.1-5.8-.3-1.1-.2-2.1-.6-3.1-1.1-.2-.1-.3-.1-.5-.2-1.4-.6-2.8-1.3-4-2.2l-.9-.6c-.4-.3-.8-.6-1.1-1-.6-.7-1.1-1.4-1.7-2.1-.4-.5-.7-1.1-.9-1.7-.1-.3 0-.6.4-.7.2 0 .4-.1.5-.1 1-.3 2-.4 3-.3zm-12.4.7h3.9c.1 0 .3 0 .4.1.5.1 1.1.1 1.6.2.3 0 .7.1 1 .2.2 0 .3.2.4.3.3.7.8 1.2 1.2 1.7.2.2.3.5.5.7.1.1.1.2.2.3 1.1 1.2 2.1 2.4 3.6 3.2.5.3 1 .7 1.6 1 .6.3 1.2.5 1.9.8.2.1.5.2.7.3-.1.3-.3.4-.5.5-.4.1-.7.2-1.1.2h-3.5c-1.3 0-2.4-.5-3.6-.8-.5-.1-.9-.2-1.4-.4-.2-.1-.4-.1-.6-.2-1.1-.5-2.1-1-3-1.6-.3-.2-.7-.4-1-.6-.4-.3-.7-.6-1-.9-.3-.3-.6-.7-.9-1-.5-.6-1-1.2-1.5-1.7-.3-.3-.6-.6-.9-1-.1-.1-.3-.2-.2-.4.1-.2.3-.4.5-.5.6-.2 1.1-.4 1.7-.4z"/><path class="st2" d="M282.3 27.3c.2 0 .4-.1.6-.1.3-.1.6 0 .8.2-.1 0-.2 0-.3.1-.2 0-.4.1-.6.1-.1 0-.2.1-.3.1.4.2.7.2 1 .1h1.1c.1 0 .2 0 .3-.1.2 0 .3-.1.5-.1.2.3.5.5.9.5.2 0 .5 0 .6.3-.3.3-.7-.1-1 .2.5.1.9.4 1.4.4.6 0 1.1.4 1.7.6-.5.2-1-.2-1.4.2.4.2.8.3 1.2.3.4.1.8.1 1.2.3.5.1.9.4 1.4.5.3.1.5.3.6.7-.3.1-.6-.3-.9-.2h-1s-.1 0 0 0c-.1 0 0 0 0 0 .3.3.6.3.9.4.4 0 .8.1 1.2.2l.1.1c-.1.3-.3.1-.5.2.3.1.5.3.7.4l.1.1c-.1.2 0 .4.2.5.1.1.3.1.4.2.3.2.7.4 1 .8-.1.1-.1.2-.2.3-.4-.1-.6-.5-1-.5.1.4.4.7.7.9.2.2.5.4.7.6.1.1.1.3.1.4-.1.2-.2.1-.4 0-.4-.2-.7-.5-1-.7-.2 0-.3.1-.5.1-.1-.1-.3-.1-.4-.2v.1c.2.1.3.2.5.3.4.6 1.1.9 1.2 1.6.1.5.4.9.7 1.4h-.3c-.4-.1-.8-.2-1.2-.1h-.1c-.4-.1-.7-.3-1.1-.4-.3-.1-.5-.3-.7-.4-.1-.1-.3-.1-.5.1.4.3.7.6 1 .9.1.1.3.2.2.3 0 .1-.2.1-.3.1-.7.1-1.4 0-2.1-.1-.6-.1-1.1-.1-1.7-.1.4.5 1.2.7 1.6 1.3-.1 0-.1.1-.2.1H288c-1.6-.3-3.2-.6-4.7-1.4-.2-.1-.3-.2-.6-.1.2.4.5.5.8.7.3.2.6.4.9.5.3.2.7.3.9.6.2.4.7.2.8.6-.3.1-.6 0-.8 0-.4-.1-.8-.2-1.3-.1-.2 0-.4 0-.5-.1-.3-.1-.6-.1-1-.2h-.1c.2.2.4.5.6.7.2.2.2.2-.1.6-.4-.1-.8-.3-1.2-.4-.4-.1-.7-.3-1-.4 0 0-.1 0-.1-.1 0 0 .1 0 .1.1.2.5.6.8 1.1 1-.3.3-.3.4-.5.3l-1.2-.6c-.5-.3-1-.5-1.5-.8-.1.4 0 .8.3 1 .2.1.3.2.5.4s.1.3-.1.4l-.1-.1c-.5.1-.9-.3-1.4-.2 0 .1-.1.2-.1.3h-.2c-.4-.4-.7-.8-.9-1.3-.3-.7-.7-1.4-1-2.1-.1-.1-.1-.1-.4-.1l.3.9c.1.2.1.3-.1.5-.1-.1-.2-.2-.2-.3-.1-.3-.2-.7-.3-1-.1-.2 0-.4-.3-.5-.1 0-.1-.1-.1-.2l-.3-1.5c0-.1 0-.1-.1-.2 0 .5 0 1.1-.1 1.6h-.1l-.3-.3v-.3c0-.2.2-.5.1-.6-.2-.4 0-.8-.2-1.2V36c.1-.5.3-1.1.4-1.6v-.7h-.1c-.1.1-.2.2-.2.3-.1.2-.1.4-.1.6-.3.1-.2.3-.2.5-.2 0-.3 0-.3-.2 0-.3-.1-.6-.1-.9-.1-1.2.2-2.2.9-3.1.1-.1.1-.4.2-.5 0-.1.1-.3.1-.4.3-.1.5-.3.7-.6h.5c0 .1.1.2.1.3 0 .1.1.2.1.2h.1c0-.1-.1-.1-.1-.2v-.2h.3c-.1-.3-.1-.5-.2-.9.2 0 .3 0 .5.1l.3-.3c-.1-.1-.2-.2-.4-.3V28c.2 0 .4 0 .6.1.2.1.4 0 .6 0l1.2-.3h.1c.5.2 1 0 1.5-.1.2 0 .3-.1.5.1 0 .1.2.1.2.1.4-.1.8-.1 1.3-.2-.1-.3.1-.3.3-.4zm4.8 10.4h-.1.1c0 .1.1.1.1.1v-.1h-.1zm.9-3.2c-.1 0-.1 0-.2-.1 0 0 .1.1.2.1 0 .3.2.4.5.3-.2-.1-.4-.2-.5-.3zm2.3 1.1c0-.1 0-.1 0 0 0-.1 0-.1 0 0 .2.3.6.3.9.4-.2-.2-.5-.4-.9-.4zm-3.2-5.3c-.2-.3-.5-.3-.8-.3.2.4.4.5.8.3zm2 6.7c-.4-.4-.4-.4-.7-.3.2.2.4.2.7.3zm-2.5.6s0-.1.1-.1c-.2-.1-.4-.2-.5-.2v.1c.1 0 .3.1.4.2zm-3.5.5V38c-.2-.1-.3-.1-.5-.2v.1c.2.1.4.1.5.2zm-9.6-5.3c-.1 0-.1 0 0 0-.1.1-.1.2-.2.3h.1c0-.1.1-.2.1-.3zm9.1-2.2s0-.1 0 0c0-.1-.1-.2-.2-.2v.1s.1.1.2.1zm-6-2c0 .1 0 .1 0 0 0 .1.1.2.1.2v-.1c.1 0 0 0-.1-.1zm-1.2 1.3c-.1 0-.1.1 0 0-.1.1-.1.1 0 .1h.1c-.1 0-.1 0-.1-.1zm6.7.5c.1 0 .1 0 0 0 .1-.1 0-.1 0 0 0-.1 0-.1 0 0zm4.7 7.2z"/><path class="st3" d="M292.3 35.2c.2 0 .3-.1.5-.1.3.2.7.4 1 .7.1.1.3.2.4 0 0-.1 0-.3-.1-.4-.2-.2-.4-.4-.7-.6-.3-.2-.5-.5-.7-.9.4 0 .6.4 1 .5.1-.1.1-.2.2-.3-.2-.4-.6-.5-1-.8-.1-.1-.2-.2-.4-.2-.2-.1-.3-.3-.2-.5.4 0 .8.1 1.2.4 1.3 1 2.6 1.9 3.9 2.9l.3.3c0 .1-.1.1-.1.2l.9.6c.3.2.6.3.8.6-.3.3-.6.1-1 0 .2.2.2.3.3.4.4.4.7.8.9 1.3.2.4.2.8-.3 1.1.6.6 1.1 1.2 1.6 1.8-.1.2-.2.1-.4.1-.4-.1-.7-.2-1.1-.4h-.3c0 .4.4.4.5.5-.2.5-.3.6-.7.4-.4-.1-.7-.2-1.1-.3h-.1v.3c-.2.1-.4.1-.5.1h-.1c-.1-.1-.2-.1-.3-.2-.8-.1-1.5-.1-2.3-.2l-.1.1c.2.2.5.3.7.4.2.1.3.2.2.5h-.5c-.1 0-.2-.1-.2 0-.3.3-.6.1-.8 0-.7-.2-1.3-.5-1.9-.7-.1 0-.2-.1-.4-.1-.1.2-.1.3.1.3.2.1.4.2.6.4.1.1.2.1.3.2-.1.1-.2.1-.3.1-.2 0-.4-.1-.5-.1-.3-.1-.5-.1-.7.1-.2.2-.5.2-.8 0-.2-.1-.5-.3-.8-.4-.3-.1-.6-.2-.9-.2 0 .2.1.3.2.4l.6.3c.1.1.1.2.1.3 0 .1-.1.1-.2.1-.8-.1-1.6-.2-2.3-.3-.3-.1-.6-.2-1-.3-.2-.1-.5-.1-.7-.2h-.1.1c.2.3.4.5.8.6.3.1.3.2.1.6-.7-.2-1.4-.5-2.1-.7h-.1c-.8 0-1.5-.3-2.3-.7 0 .7.6.7.9 1.1h-.4c-.7-.2-1.4-.5-2-.9-.1-.1-.3-.1-.5-.2-.1-.1-.3-.2-.4-.3.2-.1.3-.2.1-.4-.1-.1-.3-.2-.5-.4-.3-.3-.4-.6-.3-1 .5.3 1 .5 1.5.8l1.2.6c.2.1.2.1.5-.3-.5-.2-.9-.5-1.1-1 .3.1.7.3 1 .4.4.1.8.3 1.2.4.3-.3.3-.3.1-.6-.2-.2-.4-.5-.6-.7.3.1.6.1 1 .2.2 0 .4.1.5.1.4-.1.8 0 1.3.1.3.1.5.1.8 0-.1-.5-.6-.3-.8-.6-.2-.3-.6-.4-.9-.6-.3-.2-.6-.4-.9-.5-.3-.2-.7-.3-.8-.7.2-.1.4 0 .6.1 1.5.7 3.1 1.1 4.7 1.4.4.1.8 0 1.2 0 .1 0 .1 0 .2-.1-.5-.5-1.2-.7-1.6-1.3.6 0 1.1 0 1.7.1.7.1 1.4.2 2.1.1.1 0 .2-.1.3-.1.1-.1-.1-.2-.2-.3-.3-.3-.7-.6-1-.9.2-.2.3-.1.5-.1.2.1.5.3.7.4.3.1.7.3 1.1.4h.1c.4-.1.8 0 1.2.1h.3c-.2-.5-.6-.9-.7-1.4-.2-.8-.9-1.1-1.2-1.6-.1-.1-.1-.2-.1-.3zm4.2 6.5c-.1 0-.1-.1 0 0-.1 0-.1 0 0 0 0 .1.1.1.1.2l.1-.1c-.1 0-.2-.1-.2-.1zm1 .6c-.2-.2-.4-.3-.7-.3.2.1.4.3.7.3zm-11 .7c-.2-.3-.5-.3-.8-.3.2.2.5.3.8.3zm1.6-.6c.2.1.3.1.5.2v-.1c-.2-.1-.3-.3-.5-.1zm6.8-7.8s0-.1.1-.1c-.1-.1-.3-.1-.4-.2v.1c.1 0 .2.1.3.2z"/><path class="st4" d="M288.3 28.4c-.1-.1-.1-.2-.1-.2-.4 0-.8-.1-1.2-.1.3.5.8.4 1.3.3zm-8.9 15.5s0 .1 0 0c0 .1 0 .1 0 0zm29.5 24.7l.1-.1v-.1c-.1-.1-.2-.1-.3-.2 0 0 0 .1-.1.1.1 0 .1.1.2.1 0 .1.1.1.1.2zm-26.4-40.9c.4.2.7.2 1 .1-.2-.1-.4-.1-.6-.2-.1 0-.2 0-.4.1zm3.8 2.3c.2.4.4.5.8.3-.2-.3-.5-.2-.8-.3zm4 5.6v-.1.1zm.9.4c-.3-.2-.5-.4-.9-.4.3.2.6.3.9.4zm-2.9.8c.2.1.4.1.7.3-.3-.4-.3-.4-.7-.3zm4-1.6c-.1-.1-.3-.1-.4-.2v.1c.2.1.3.2.5.3-.1 0-.1-.1-.1-.2zm-5.6 2.2c-.2-.1-.4-.2-.5-.2v.1c.2.1.3.2.5.2v-.1zm-4 .5c.1.1.3.1.4.2V38c-.1-.1-.2-.1-.4-.1 0-.1 0 0 0 0zm-9.3-4.8v-.3h-.1c0 .1 0 .2-.1.3h.2zm8.9-2.6c.1 0 .2.1.2.1s0-.1.1-.1c0 0-.1-.1-.3 0 .1-.1.1 0 0 0zm-5.5-1.7s0-.1 0 0c0-.1-.1-.1-.1-.2 0 0 0 .1-.1.1 0 .1.1.1.2.1zm-1.5 1.2l.1.1c0-.1 0-.1-.1-.1 0-.1 0 0 0 0zm5.1 11.2s.1 0 .1.1c0-.1 0-.2-.1-.1 0-.1 0-.1 0 0zm6.8-3.4s-.1 0-.1-.1c0 .1.1.1.1.1zm.7-3.3c.1.2.2.3.5.2-.1 0-.3-.1-.5-.2 0-.1-.1-.1-.1-.1l.1.1zm2-3.3zm0 0zm0 0zm-7.8-.9c0 .1 0 .1 0 0zm.1 10.4zm4.9-3h-.1.1zm-.3-.1zm3.5-2c0-.1 0-.1 0 0 0-.1 0-.1 0 0zm-3.8 7.4c-.2-.3-.5-.3-.8-.3.2.2.5.3.8.3zm-.8-.3h-.1.1zm11.8-.4c-.2-.2-.4-.3-.7-.3.2.1.4.3.7.3zm-8.9.2c-.2-.1-.3-.2-.5-.1.1.1.3.1.5.1zm6-8.1c.1.1.2.1.4.2 0 0 0-.1.1-.1-.2-.1-.4-.2-.5-.1 0-.1 0-.1 0 0zm1.9 7.3zm.2.1c-.1 0-.1-.1-.2-.1 0 .1.1.1.2.1-.1 0-.1 0 0 0zm-.3-.1zm.1 0c-.1 0-.1 0 0 0-.1 0-.1 0 0 0-.1 0-.1 0 0 0zm0 0zm-8.3 1.4c0 .1 0 .1 0 0 0 .1 0 0 0 0zm0 .1zm-3.2.3s-.1-.1 0 0c-.1-.1 0 0 0 0zm1.5-.5zm20.5 5.4c-.3-.3-.6-.5-1-.7v.5c.3.2.7.3 1 .2 0 .1 0 .1 0 0zm-2.1-1.4c.1.3.1.3.6.3-.3-.1-.4-.2-.6-.3zm.9.6zm0 0s-.1 0 0 0zm0 .1s0-.1 0 0c0-.1 0 0 0 0zm0-.1zm-6.7 1.9v-.1c-.1 0-.2.1-.2.1v.1c0-.1.1-.1.2-.1zm.3.1c0-.1-.1-.1 0 0-.1 0-.1 0 0 0-.1 0 0 0 0 0zm-7.2-3.5V46l-.1.1h.1zm-37 9.3c0-.2-.1-.3-.4-.4.1.2.2.4.4.4-.1.1 0 .1 0 .1v-.1zm4.9-2.6h-.2s.1.1.2 0c-.1.1-.1.2 0 .2l.1-.1c-.1 0-.1 0-.1-.1zm76.3 23.5c-.3.2-.6.2-.8.2-.4-.1-.8-.2-1.1-.3-.3-.1-.7-.1-1-.2-1-.3-2.1-.5-3.1-.9-.8-.3-1.6-.7-2.4-1-.7-.3-1.3-.7-2.1-.7-.1 0-.3-.1-.4-.1l-2.1-.9c-.4-.2-.8-.4-1.1-.5-.2-.1-.3-.1-.5-.2-.8-.3-1.7-.6-2.5-.9l-2.1-.9c-.1-.1-.3-.1-.4-.2-.4-.1-.7-.3-1-.5-.2-.2-.5-.4-.8-.5-.3-.1-.6-.3-.8-.5-.2-.2-.4-.2-.6-.3-.4-.2-.9-.3-1.3-.6-.8-.4-1.6-.8-2.5-1-.3-.1-.7-.2-.9-.5-.6-.2-1.1-.7-1.9-.7-.3 0-.6-.1-.7-.4l-.1-.1c-.6-.3-1.1-.6-1.7-.9-.3-.2-.6-.3-1-.4-.1 0-.2-.1-.3-.2-.1-.3-.4-.3-.6-.4-.3-.1-.7-.3-1-.5l-2.1-1.5c-.2-.1-.4-.2-.6-.2-.2 0-.4-.1-.6-.2-.4-.2-.9-.5-1.3-.8-.4-.2-.7-.5-1.1-.7-2-1.4-4.1-2.7-6-4.3-.6-.5-1.2-1-1.8-1.6.3 0 .6-.1.8 0 1.7.1 3.3.2 5 .3h1.9c.3 0 .5-.1.8 0 .2.1.5-.1.7-.1.3-.1.5-.1.8-.2.6-.1 1.2-.1 1.8-.2.4.3.5.8.9 1.1.6.4 1.1.9 1.6 1.4.5.4.9.9 1.3 1.4.2.6.8.9 1.2 1.3.7.7 1.5 1.2 2.2 1.8.7.6 1.5 1.1 2.3 1.6.4.2.6.6.9.7.3.2.6.4.8.6.3.2.7.4 1.1.6.3.1.4.4.7.5.2.1.5.2.7.4.1.2.4.2.5.3.6.4 1.2.8 1.9 1.1.5.2.9.6 1.3.9.1.1.2.2.3.2.5.1.9.5 1.3.8.1.1.2.1.2.2.4.2.8.5 1.2.7.4.3.9.5 1.4.8.1.1.3.1.4.2.5.3.9.6 1.4.9.3.1.5.2.8.3.1 0 .2 0 .3.1.8.7 1.7 1.1 2.7 1.6.3.1.5.2.9.2.3 0 .6.3.9.4.1 0 .1.2.2.2.5.1.9.4 1.4.6.5.2 1 .4 1.4.6.3.1.7 0 .9.2.2.3.5.3.8.5.3.2.8.2 1.1.5.3.3.8.4 1.1.6.3.1.3.2.4.3z"/><path class="st5" d="M313.3 62.2c-.1-.3-.2-.4-.6-.5-.3 0-.5-.3-.7-.5-.8-.5-1.5-1.3-2.3-1.7-.1-.1-.2-.2-.2-.3-.1-.1-.2-.3-.3-.4-.3-.1-.5-.2-.7-.4-.1-.1-.2-.2-.4-.3l-.1-.1c-.4-.1-.6-.5-.9-.7-.1-.1-.2-.2-.2-.3 0-.4-.3-.5-.5-.7-.6-.5-1.1-1.1-1.9-1.4.1-.3 0-.5-.3-.7-.3-.2-.6-.6-1-.8V53c-.2-.3-.5-.7-.8-1.2.2-.2.5-.2.7-.2.4 0 .8-.1 1.2-.1.4 0 .8-.2 1.2-.1.4.1.7 0 1.1-.1.5-.2.9-.1 1.4-.1h.5c.1 0 .3 0 .4.1.2.2.5.3.6.5.2.4.6.5.8.8.3.4.7.7 1 1.1.2 0 .3-.1.4-.1.1 0 .1.2.2.3.1.1.1.2.1.3.1.2.2.4.5.4.1 0 .3 0 .3.1.2.4.5.6.8.8.1.1.2.1.3.2.2.1.3.3.4.5.1.2.1.3.3.4.1 0 .2.1.2.2.4.6 1 1 1.5 1.5l.2.2c.4-.1.4.2.5.4.1.1.1.2.2.3.4.4.9.8 1.4 1.1.4.3.8.6 1.2 1 .1.1.2.2.3.2.6 0 .9.4 1.2.9.2.4.4.7.8.8l.1.1c.4.8 1.2 1.2 1.8 1.9l.1.1c.4 0 .6.4.8.6.3.3.6.5.9.7.1 0 .2.1.2 0 .2-.1.3 0 .5.1.3.3.6.5 1 .8.1.1.3.2.4.3 0 0 0 .1.1.1.2.1.4.1.5.2.1.1.2.4.4.3.1 0 .2.2.3.2.1.2.3.4.4.5l1.2.9c.5.3.8.8 1.3 1.1.3.2.6.3 1 .5.1.1.3.2.2.4-.1.2-.2.3-.4.3-.3-.1-.6-.1-.9-.2-.7-.2-1.4-.5-2.1-.6-1.1-.3-2.1-.7-2.9-1.4-.2-.2-.5-.3-.7-.4-.5-.2-1-.5-1.5-.7-.2-.1-.3-.3-.5-.4-.1 0-.1-.1-.2-.1-.4-.1-.7-.2-1-.4-.1 0-.1 0-.2-.1-.6-.5-1.2-.8-1.9-1.1-.1 0-.1 0-.2-.1-.5-.7-1.3-1-2.1-1.3-.2-.1-.4-.2-.5-.4-.2-.3-.5-.5-.8-.6-.5-.2-.9-.5-1.3-.8-.6-.4-1.2-.9-1.9-1.2-.1 0-.5-.1-.9-.3z"/><path class="st4" d="M319.9 115.6c-.2-.7-.4-1.3-.5-1.9-.1-.5-.4-.8-.7-1.1-.3-.2-.6-.5-.6-.9 0 0 0-.1-.1-.1-.4-.6-.7-1.3-1-2-.4-.9-.7-1.9-1-2.8-.2-.9-.5-1.8-.8-2.7-.5-1.4-.9-2.7-1.4-4.1-.1-.3-.1-.7-.3-1-.2-.5-.4-1-.7-1.5-.2-.5-.5-1.1-.7-1.7 1.4-.2 2.8-.3 4.1-.4.2.3.4.5.5.8.3.9.9 1.5 1.3 2.3.6 1.2 1.3 2.4 1.9 3.7.3.7.6 1.5.8 2.2.4 1.3.8 2.5 1.3 3.8.3.8.6 1.6.7 2.5.1.7.1 1.3-.3 1.9-.5.8-1 1.6-1.7 2.2l-.8.8zm-12.5-19.7c1.2-.1 2.4-.1 3.6-.2.1.2.2.4.2.6.3 1.2.7 2.4.9 3.6.2.8.3 1.6.4 2.3.1.7.3 1.3.3 2 0 .4.2.8.2 1.2.1.9.2 1.9.3 2.8 0 .2 0 .4.1.5.2.9 0 1.7-.4 2.5l-.6 1.5c-.1.3-.2.6-.4.8 0 .1-.2.2-.3.1-.1 0-.1-.2-.2-.2v-.1c.1-1-.4-1.7-.9-2.5-.2-.3-.4-.5-.6-.7-.9-.9-1.2-2-1.5-3.2-.5-2-.6-4-.7-6 0-1.1-.2-2.1-.3-3.1 0-.5-.1-.9-.1-1.4.1 0 0-.2 0-.5z"/><path class="st6" d="M309 68.5c.3.2.7.4 1 .6.1.1.2.2.4.1 0 0 .2 0 .2.1.2.4.6.5.9.8.2.2.5.2.7.3.4.1.7.3 1 .5.3.3.8.3 1 .7.3 0 .5.2.7.4.1.1.2.1.3.1.3-.1.4 0 .6.2.2.3.5.5.9.6.3.1.6.3.7.5.2.3.5.3.7.3.4.1.4.1.1.5.2.2.4.5.6.7.1.2.3.4.4.6.1.2.2.5.5.5l.1.1c.1.6.6 1.1.9 1.6.1.1.1.3.2.5.1.6.3 1.2.8 1.6 0 0 .1.1.1.2.1.4.5.7.8 1.1.3.4.5.7.8 1.1.3.4.5.8.7 1.2.1.2.2.5.5.6.1 0 .1.1.1.2.1.3.1.7.5.7l.1.1c.6 1 1.2 2 1.8 3.1-.1 0-.3.1-.5.1-.4-.4-.8-.7-1.2-1.1-.7-.7-1.4-1.3-2.1-2l-.1-.1c-.3 0-.4-.2-.5-.4-.3-.6-.8-1.1-1.3-1.7-.5-.6-1-1.1-1.4-1.8-.3-.6-.8-1-1.2-1.5-.4-.5-.7-.9-1.1-1.4-.4-.5-.8-.9-1.3-1.3-.1-.1-.3-.2-.4-.4-.8-.9-1.6-1.7-2.4-2.6-.3-.3-.6-.6-.9-1l-1.3-1.3c-.1-.1-.1-.2-.2-.3-.2-.3-.3-.5-.6-.8-.6-.6-1.1-1.2-1.6-1.9-.1-.1 0-.1 0-.1zm4.3-17.9c-.5.3-.9.1-1.4 0-.4-.1-.9-.1-1.3-.1h-.1c-.4-.3-.8-.1-1.2-.1-.3 0-.3-.2-.3-.4-.3 0-.6-.1-.9-.1-.2 0-.4.1-.5-.2l-.1-.1c-.5.1-.5-.3-.6-.6-.6-.2-1.1-.5-1.7-.7v-.5c-.9-.6-1.6-1.5-2.7-2 0-.1 0-.3-.1-.3-.3-.2-.5-.6-.8-.8-.3-.2-.5-.6-.8-.9-.1-.1 0-.4 0-.6.3-.2.7.2 1.1 0l-.3-.6c-.1-.2-.4-.3-.1-.5l-.3-.6c.1 0 .3 0 .4-.1.1-.1.2-.2.2-.3v-.4l.4.4c.1-.1.2-.1.3-.2h.1c.7.3 1.4.7 1.9 1.3l.7.7c.3.2.6.5 1 .6h.1c.1.4.5.5.7.7.3.4.7.7 1 1.1.5.5 1.1 1.1 1.7 1.5.3.2.4.4.7.6l.1.1c0 .4.3.5.5.7.2.2.3.4.6.6.1.1.2.3.3.4.4.4.6.9.9 1.4.5-.2.5-.1.5 0zm-7.5-3s0 .1 0 0c0 .1 0 .1 0 0 0 .1 0 0 0 0s-.1 0 0 0zm-.9-.6c.1.3.1.3.6.3-.3-.1-.4-.2-.6-.3zm1.1 1.3c.3.1.7.2 1 .2v-.1c-.3-.3-.6-.5-1-.7v.6z"/><path class="st7" d="M310.8 51.7c.5 0 1 .1 1.4.1.3 0 .5 0 .7.2.2.1.5.1.7.2.3.1.6.1.9.2.3.1.5.1.6-.1.3.2.5.5.8.7.1-.1.1-.1.1-.2h.1c.1.5.5.7.7 1 .2.2.3.4.5.5.2.1.4.2.6.5.4 0 .4.5.6.6.3.2.5.5.7.7.3.2.4.6.7.8.3.2.6.4.7.8 0 0 0 .1.1.1.4.1.5.6.8.8.4.4.9.8 1.4 1.3l.6.6c.2.3.4.6.6.8l.3.3c.1.1.2.1.3.2.4.6 1 1.1 1.6 1.6.2.1.3.3.4.5.1.1.1.3.3.4.4.4.8.7 1.2 1.1.1.1.4.2.3.5-.1.3-.4.1-.6 0-.5-.1-.8-.4-1.2-.7-.5-.4-1-.8-1.5-1.1-.8-.6-1.6-1.1-2.4-1.7-.6-.5-1.2-1.1-1.8-1.6-.3-.2-.6-.4-.8-.6-.1-.1-.3-.2-.4-.3-.2-.2-.5-.4-.7-.6l-.3-.3-.5-.5-.3-.3c-.6-.5-1.1-1.1-1.8-1.4-.2-.1-.3-.2-.5-.3-.4-.3-.7-.6-1.1-.9-.1-.1-.3-.2-.3-.4-.1-.4-.4-.5-.7-.7-.1-.1-.4-.1-.3-.4l-.2-.2c-.3-.3-.6-.5-.9-.8l-.1-.1c-.6-.2-.7-.8-1.2-1.1-.2-.1-.2-.2-.1-.2z"/><path class="st5" d="M302.6 96.5c1-.1 2-.2 3.1-.4.1.3.1.6.1.9.1.8.3 1.5.4 2.3.2 1.4.3 2.8.1 4.2v.9c0 1.5-.3 3-.8 4.5 0 .1-.1.2-.1.3-.1.2-.2.3-.3.2-.2-.1-.2-.2-.1-.4.1-.3.1-.5.2-.8 0-.4-.1-.8-.4-1.2-.4-.5-.8-.9-1.1-1.4-.5-.8-.8-1.8-.9-2.7-.1-1.2-.3-2.4-.3-3.6 0-.7.1-1.4.2-2.1-.1-.2-.1-.4-.1-.7z"/><path class="st6" d="M297 42.9h.1c.4.5 1 .7 1.5 1 .1.1.3-.1.6-.1l.5.5c.2.2.4.5.6.8.3.4.7.6 1.1.7.2.1.2.1.3.3.1.2.2.4.3.5.1.2.3.3.5.4.9.8 1.8 1.5 2.8 2.3.2.2.5.3.7.4.2.1.3.2.6.3-.8.3-1.5.3-2.3.2-.7-.1-1.3-.3-1.9-.6-.2-.1-.4-.1-.6-.2-.5-.3-1-.5-1.5-.8-.2-.1-.4-.3-.6-.4-.5-.2-.8-.6-1.2-.9-.2-.7-.9-1-1.2-1.6 0-.1-.1-.2-.1-.2-.5-.3-.7-.6-.7-1.2 0-.2-.3-.4-.4-.5-.2-.3-.2-.4.1-.6.1-.1.2-.3.3-.4.1.1.3.4.5.1zm3.5 54.1c0 1.6-.1 3.3-.2 4.9 0 .7-.2 1.3-.5 1.9 0 .1-.1.2-.1.3-.1.3-.3.5-.6.4-.1 0-.2-.1-.2-.1-.1-.2-.1-.4-.1-.6.1-1.1-.3-2.2-.8-3.1-.4-.8-.6-1.6-.5-2.5 0-.2.1-.3.2-.3.8-.3 1.7-.6 2.5-.9.1-.1.2 0 .3 0z"/><path class="st4" d="M340.9 107.4c-.1-1.1-.5-2.1-1.1-3-.8-1.1-1.7-2.3-2.5-3.4-.2-.3-.5-.5-.7-.8l-.5-.5c-.4-.4-.8-.9-1.2-1.3-1.1-1.2-2.2-2.4-3.3-3.7-.3-.3-.4-.6-.7-.9-.5-.5-1.2-.7-1.6-1.3-.6-.2-.9-.6-1.1-1-.4-.6-.8-1.1-1.3-1.5-.2-.2-.4-.4-.5-.6-.3-.4-.6-.9-1.2-1.2-.2-.1-.3-.3-.4-.4-.4-.4-.7-1-1.2-1.2-1.1-1.1-2.2-2.3-3.2-3.4-1.3-1.4-2.5-2.9-3.8-4.3-.2-.2-.4-.5-.6-.8-.2-.3-.4-.6-.7-.8-.2-.2-.4-.4-.5-.6-.3-.5-.5-.9-.9-1.3s-.8-.7-1.2-1.1c-.4-.4-.8-.7-1.1-1.1-.6-.6-1.1-1.2-1.7-1.8-.3-.3-.6-.6-.9-.8.1-.5.1-.7-.2-.9-.2-.2-.3-.3-.5-.4-.5-.2-.9-.6-1.2-1-.5-.6-1-1.1-1.6-1.7-.6-.5-1.1-1.1-1.8-1.5-1-.6-2-1.2-3.2-1.6-.1 0-.2-.1-.2-.1-.1-.3-.5-.3-.7-.5 0-.1.2-.3 0-.4-.5-.3-.9-.7-1.5-.9-.4-.1-.8-.4-1.3-.5-.1 0-.2-.1-.2-.2-.1-.4-.4-.4-.7-.5-.2-.1-.3-.2-.5-.2-.7-.5-1.4-.9-2.2-1.4-.1-.1-.2-.1-.3-.2-.7-.4-.9-1.2-1.6-1.6-.1 0-.1-.1-.1-.2-.2-.4-.5-.6-.9-.8-.3-.1-.7-.1-.9-.5 0 0-.1 0-.2-.1l-1.2-.6c-.2-.1-.4-.4-.5-.6-.3-.5-.7-.9-1.2-1.1-.2-.1-.5-.3-.6-.5-.1-.2-.3-.3-.5-.5-.2-.1-.5-.2-.5-.4-.1-.4-.4-.4-.7-.6-.3-.2-.5-.5-.4-.9h.1c.2.2.4.2.6.3.2.1.3.3.5.5.1-.1.2-.2.2-.3.3.3.3.3.7.3h.1c.5.2 1 .5 1.5.6.3.1.6.1.8.1.3-.1.5 0 .7.2.1.1.2.2.4.1s.4-.1.6.1h.3c.1-.2.3-.2.5-.2h1.1c.6-.1 1.1-.3 1.7-.3.1 0 .2 0 .4-.1-.1-.3-.3-.3-.5-.4-.4-.1-.7-.2-1.1-.4-.3-.2-.7-.3-1-.5-.3-.2-.7-.4-.8-.7-.3-.7-1-1.1-1.3-1.7-.3-.5-.7-.8-1.1-1.2-.2-.3-.5-.5-.9-.5-.2 0-.4 0-.7-.1-.2-.1-.4-.2-.7-.2-.3 0-.5-.2-.8-.4-.3-.3-.7-.5-1-.8-.1.1-.3.3-.5.1 0 0-.1.1-.2.1.3.3.7.6 1 .9-.5 0-.8.1-1.2-.2h-.2c-.7 0-1.3-.4-1.9-.7-.5-.3-1-.7-1.5-1-.1.3-.2.4-.3.2-.2-.2-.4-.2-.6-.3-.1 0-.3-.1-.3-.2-.1-.5-.6-.4-.9-.4-.2 0-.4-.1-.5-.2l-.3-.3c-.3-.3-.6-.5-.9-.7 0 .3.2.6 0 .9-.5-.2-.7-.6-1-.9-.3-.4-.6-.9-.9-1.3-.1-.1-.1-.3 0-.5v-.4l-.3-1.5v-.3c0-.1-.1-.2-.1-.3 0 .1.1.2.1.3 0-.2.2-.5.1-.6-.2-.4 0-.8-.2-1.2v-.4c.1-.5.3-1.1.4-1.6v-.7h-.1c-.1.1-.2.2-.2.3-.1.2-.1.4-.1.6-.3.1-.2.3-.2.5-.2 0-.3 0-.3-.2 0-.3-.1-.6-.1-.9-.1-1.2.2-2.2.9-3.1.1-.1.1-.4.2-.5 0-.1.1-.3.1-.4.3-.1.5-.3.7-.6h.5c0 .1.1.2.1.3 0 .1.1.2.1.2h.1c0-.1-.1-.1-.1-.2v-.2h.3c-.1-.3-.1-.5-.2-.9.2 0 .3 0 .5.1l.3-.3c-.1-.1-.2-.2-.4-.3v-.1c.2 0 .4 0 .6.1.2.1.4 0 .6 0l1.2-.3h.1c.5.2 1 0 1.5-.1.2 0 .3-.1.5.1 0 .1.2.1.2.1.4-.1.8-.1 1.3-.2.1-.2.2-.2.3-.2-.1 0-.2.1-.3.2.2 0 .4-.1.6-.1.2 0 .4-.1.6-.1.3-.1.6 0 .8.2-.1 0-.2 0-.3.1-.2 0-.4.1-.6.1.2.1.4.1.6.2h1.1c.1 0 .2 0 .3-.1.2 0 .3-.1.5-.1.2-.1.4-.1.6-.2l1.5.6c-.1-.2-.1-.3-.2-.4-.1-.1-.1-.2-.2-.2-.6-.2-1-.8-1.4-1.2-.3-.2-.5-.5-.9-.6-.2-.1-.3-.2-.4-.5 0-.2-.2-.3-.3-.5-.2-.2-.5-.3-.7-.4-.4-.3-.8-.5-1.1-.9-.3-.4-.7-.6-1-.8-.1-.1-.2-.1-.4-.2l-.3-.3s.1 0 .1-.1l.1-.1c-.1-.2-.1-.4-.2-.6-.3-.4-.2-.7-.1-1.1.1 0 .2 0 .4-.1v-.3c-.2-.4.1-.8 0-1.3 0-.2.1-.4.2-.5.1-.3.3-.6.4-.8 0-.3.2-.6.4-.9.1-.2.2-.3.1-.4-.1-.2 0-.3.1-.4.4-.6.9-1.3 1.3-1.9.1-.1.2-.3.3-.4.4-.4.9-.7 1.3-1.1 1.3-1.2 2.9-2.1 4.5-2.8.4-.2.8-.4 1.3-.5 1.2-.4 2.3-.7 3.5-1 .2-.1.5 0 .5-.3 0-.2-.3-.2-.5-.3-1.4-.4-2.8-.7-4.2-1.1-1.9-.5-3.7-.9-5.6-1.3l-2.1-.6c0 .2.1.4 0 .6-.3.6-.6 1.1-1.3 1.4-.1.1-.3.1-.3.3-.3.4-.8.5-1.3.5.1-.2.2-.3.3-.5-.1 0-.1 0-.2.1.1 0 .1 0 .2-.1.3-.4.5-.8.8-1.2.3-.3.5-.7.7-1-.2-.6-.6-.8-1.1-1-.8-.3-1.5-.7-2.2-1.2l-.3-.3c-.2-.2-.3-.4-.5-.6-.3.2-.5.2-.7 0-.2-.1-.4-.3-.7-.3-.2 0-.4-.1-.6-.1-.5-.2-.9-.5-1.3-.7-.2.1-.3.2-.4.3-.3 0-.6-.4-.9-.1h-.1c-.6-.1-1.1-.1-1.7-.3-.1-.1-.3-.2-.5.1 0 .1-.2 0-.3 0-.7 0-1.4-.1-2.2 0-1 .2-1.9.5-2.9.3h-.1c-.2.3-.5.2-.8.2-.1 0-.2-.1-.3 0-.2.1-.5.3-.7.3-.6 0-1 .2-1.4.5-.2.1-.5.1-.7.2-.1.2-.2.3-.3.4-.2.2-.4.3-.6.4-.5.2-.8.6-1.3.8-.1 0-.1.1-.2.2-.1.2-.3.4-.4.6-.2.2-.5.4-.7.6l-1.2 1.2c-.1 0-.1.1-.1.1-.1.2-.1.4-.3.5-.1.1-.5.1-.5.3-.1.3-.5.5-.7.8 0 .1.1.2.1.2-.2.3-.4.6-.6.8-.1.1-.2.2-.3.2-.6.1-.9.7-1.3 1l.3.3c-.5.6-.9 1.1-1.4 1.7-.3.3-.6.6-.5 1.1 0 .1-.1.2-.1.2-.2.4-.4.9-.6 1.3 0 0 0 .1-.1.1l-.3.9c-.2.6-.5 1.2-.7 1.8-.1.4-.3.7-.5 1.1-.4.5-.5 1.2-.8 1.8.1.1.2.1.3.1-.2.7-.4 1.4-.9 1.9-.2.2-.2.4-.3.6.3.5.2.9 0 1.3-.1.2-.3.4-.3.6 0 .6-.2 1.2-.2 1.8 0 .8-.2 1.5-.3 2.3 0 .5-.1.9-.1 1.4 0 .7 0 1.5-.3 2.1 0 .1-.1.2 0 .2.1.4 0 .8-.1 1.2-.1.2-.1.5-.1.8.1.4.1.8-.2 1.1-.1.1-.2.3-.2.4-.1.2-.2.3 0 .6.1.1.2.4.1.6v.3c.1.4.1.8.2 1.2 0 .3-.1.7.2.9 0 .6.3 1.2.1 1.9 0 .1-.1.3 0 .4.2.1.2.3.2.5 0 .1.1.1.1.2s.1.2.1.3c0 .3 0 .6.2.9.3.4.3.9.4 1.4 0 .1 0 .2.1.3l.3.9c.1.2.2.5.3.7.2.4.3.8.5 1.2.2.5.3 1 .5 1.5 0 .1.1.1.2.2h.2c.2.3.3.6.5.9l.6 1.8c.1.2.1.2.5.3l.3.9c.1.2.2.4.4.6.1.1.2.2.3.4.1.3.2.6.4.9 0 .1.1.3.2.3.4.2.5.6.6 1 .2.1.3.3.4.4.1.1.1.3.2.4.5.4.7.9 1 1.4 0 .1.1.2.2.3.4.2.6.6.8 1 .2.4.2 1 .8 1.2.1.5.7.6.9 1.1.6.6 1.2 1.1 1.8 1.7.6.6 1.1 1.3 1.6 1.9.1.1.1.2.1.3.1.2.2.3.4.3.3 0 .5.2.7.5.1.2.3.5.5.5.3 0 .4.3.7.4.1-.1.1-.2.1-.3h.3c0-.2-.3-.3-.2-.6.6.3 1.1.6 1.8.7.2-.3 0-.4-.1-.5-.1-.1-.2-.2-.4-.3l.1-.1c.1 0 .1.1.2.1-.1 0-.1-.1-.2-.1l-.1.1c.1.1.2.2.4.3l.1-.1c.4.1.7.3 1.1.4l.5.5c.3.1.6.2 1 .1h.4c.6.2 1.1.5 1.7.7.1 0 .2.1.3.1.3-.1.4.1.7.2.4.2.8.4 1.1.5.2 0 .4-.1.6 0 .2 0 .4.2.5.2.1 0 .2.1.3.1.2 0 .4 0 .6.1.1.4.3.7.3 1.1.1.5.3.9.5 1.3.2.5.3.5-.2.8-1.1.7-2.2 1.4-3.3 2.2-1 .7-2 1.4-3.1 2-.8.5-1.6 1-2.3 1.7-1.5 1.3-3.1 2.3-4.8 3.2-.6.3-1.2.5-1.7.7h-.3c-.8-.1-1.5-.1-2.3 0-.3 0-.6 0-.9-.1-.3-.1-.6 0-.8.2-.1.1-.2.2-.3.4-.2.3-.4.5-.8.5-.5 0-1 .3-1.2.8 0 .1-.1.2-.1.2h-15.6c-.2-.1-.3.1-.4.3-.2.5-.3 1.1-.5 1.6-.3.7-.5 1.5-.6 2.3-.1.4 0 .6.3.9.4.3.7.6 1.1.9.1.1.3.1.4.1h15.4c.1.2.2.4.5.4v-.4c.2-.1.4 0 .5.2.1.3.3.6.4.9.3 1 .6 2 .8 3-.5.4-1.1.6-1.6 1.1.1.1.2.1.3.1.6 0 1.2 0 1.8-.1.3 0 .6 0 .8.2.6.4 1.3.6 2 .7.1 0 .2 0 .3-.1v-.1c-.3-.1-.7-.2-1-.3-.3-.2-.6-.4-.8-.7 1.9-1 2.7-2.7 3.3-4.6l21.1.3c0 .2-.1.5-.1.7-.1.3 0 .5.2.7.3.3.6.6 1 .8.4.3.9.3 1.4.3.4 0 .6-.3.8-.5.2-.1.3-.2.5-.4.3-.3.4-.6.1-1-.4.4-.9.4-1.4.4 0-.4 0-.7.1-1h1.6c0 .3.1.5.1.7 0 .3.1.4.3.6.4.3.7.6 1.1.9.4.4.5.4 1 0 .1-.1.2-.2.3-.2-.4-.9-.9-1.8-1.3-2.6 0 0 0-.1-.1-.1-.4-.1-.3-.4-.3-.6 0-.3 0-.6-.1-.9-.1-.3 0-.6 0-.9 0-.2.2-.2.4-.2.2.4.1.8.1 1.1 0 .5 0 1 .3 1.3.1.1.2.4.3.6.2.5.4.9.7 1.4.2.4.6.8.8 1.2.4.7 1 1.2 1.9 1.3.7.1 1.4.2 2-.2.5-.3 1-.7 1.5-1.1.1-.1.1-.2.1-.3-.1 0-.2-.1-.3 0-.3.1-.6.3-1 .4-.5.2-1 .1-1.4-.1 0-.3.1-.5.1-.7.1-.4-.1-.8-.4-1-.2-.1-.5-.2-.7-.3-.2-.1-.3-.1-.4-.3h1c3.7.1 7.5.1 11.2.1 1.4 0 2.7.2 4.1.1.4 0 .8 0 1.1.1.5 0 .9 0 1.4.1 1.2.2 2.4 0 3.6 0h5.3c.4.9.8 1.8 1.2 2.6.7 1.4 1.5 2.7 2.3 4 1.2 1.9 2.5 3.7 3.6 5.6.7 1.2 1.5 2.2 2.3 3.3.2.3.5.5.8.8.9.8 1.8 1.7 2.9 2.3.2.1.4.3.6.3 1.3.4 2.4 1 3.4 2 .2.2.4.4.6.5.2.1.3 0 .4-.2.1-.5.1-1.1.1-1.6 0-.6 0-1.2-.1-1.8-.1-1.1-.7-2-1.4-2.8-.5-.6-1.2-1-1.8-1.6-.7-.7-1.3-1.4-1.9-2.1l-1.5-1.5c-.8-.8-1.5-1.6-2.2-2.6l-2.1-2.7-.1-.1c0-.1 0-.2-.1-.3-.3-.4-.6-.8-.9-1.1 0-.8-.5-1.3-.9-1.8-.3-.4-.5-.7-.7-1.1l-.3-.6c-.2-.4-.5-.8-.7-1.1-.5-.8-.9-1.7-1.6-2.4-.2-.3-.4-.5-.5-.8-.6-1-1.1-2-1.6-3 0-.1-.1-.1-.1-.2-.1-.2-.2-.3-.3-.5-.2-.4-.4-.9-.6-1.3-.2-.3-.3-.6-.5-.9-.3-.8-.6-1.6-.9-2.5-.1-.3-.1-.5 0-.8.4.5.9 1 1.2 1.6.4.6.7 1.2 1 1.8.3.5.7 1.1.9 1.6l.9 1.5c.2.3.5.7.7 1.1l.6 1.2c.2.4.5.7.7 1.2.2.4.4.8.7 1.1.2.2.3.4.5.6.6.8 1.1 1.7 1.8 2.3.1.1.2.2.2.3.2.6.8 1 1 1.7.1.4.4.6.7 1 .2.3.5.5.5 1 0 .1.1.1.1.2.6.8 1.1 1.6 1.8 2.3.8.9 1.6 1.7 2.4 2.6.6.6 1.2 1.1 1.7 1.6.4.4.9.8 1.3 1.2.6.5 1.1 1 1.7 1.5.1.1.2.2.3.2.3.1.7.2 1 .3.7.2 1.5.4 2.2.6l.6.3c.2.2.3.4.5.6.4.4.8.7 1 1.3 0 .1.2.2.3.2.1 0 .2-.1.2-.2.1-.1.1-.2.1-.3.1-.5.3-1 .4-1.5-1 .7-1.1.4-1.1.1zM284.2 26c-.1.1-.2.2-.2.3-.4-.1-.8-.1-1.2-.2.5-.2.9-.3 1.4-.1zm-2 1.2c-.1 0-.1 0 0 0-.1 0-.1 0 0 0zm-7.7-14.1zm3.2 4.2c-.1.1-.1.1 0 0-.1.1-.1.1 0 0zm.1 0c0 .1-.1.1-.1.2 0 0 0-.1.1-.2zm0-.2c0 .1-.1.1-.1.2s0-.1.1-.2zm2.1-8.7c.3-.1.5-.1.8 0 .2.1.4 0 .5 0 .6-.1 1.2-.2 1.8-.4.4.5.9.3 1.4.2.5-.1 1-.1 1.5-.2.5 0 .9-.1 1.4-.1.9 0 1.7-.1 2.6-.1.1 0 .2 0 .3.1-.1.3-.3.2-.5.3-.7.1-1.3.1-2 .2-1.4.3-2.8.3-4.1.6-.2 0-.4.1-.6.1-.7.2-1.3.2-2 .3-.3 0-.5.1-.8.1v.1c.5 0 .6.4.8.7.3.3.4.6.5.9.1.4 0 .6-.2.9-.1-.1-.2-.2-.2-.3-.1-.5-.5-.8-.8-1.1-.2-.1-.3-.2-.4-.4-.3-.3-.5-.6-.9-.7-.1 0-.3-.1-.4-.3-.1-.2-.1-.4.1-.4.3-.1.7-.3 1.2-.5zm-3.3 7.2c.2-.2.4-.4.7-.6.1 0 .2-.1.2 0 .1 0 .1.1.1.2s0 .2-.1.3c-.1.2-.2.3-.3.5l.3.3c.1.1.2.2.1.4s-.3.2-.4.1h-.1c-.1.1-.2.3-.3.4-.1.1-.3.2-.3.2-.3-.1-.5 0-.7.2h-.2c0-.1-.1-.2 0-.3.3-.6.6-1.2 1-1.7zm-20.5 77c-.3.6-.6 1.2-.5 1.8 0 .2-.1.4-.3.6.2-1.1-.2-1.9-.6-2.7h1.5c0 .1-.1.2-.1.3zm51.8-22.8c0 .1.1.1.2.1-.1-.1-.1-.1-.2-.1 0-.1 0-.1 0 0 0-.1 0-.1 0 0zm.3.1zm-.1-.1zm-13.2 4.4zM293 61.9c.5.2 1.2.2 1.6.9-.6 0-1.1-.2-1.5-.5-.1-.1-.1-.2-.1-.4 0 .1 0 0 0 0zm-3.3 3.5c.5.4.5.4.5 1.2-.1 0-.2-.1-.3-.1-.2-.2-.4-.3-.7-.4-.2 0-.4-.3-.6-.5-.1-.1-.1-.3-.2-.5.6-.3 1 0 1.3.3zm-1.1-2.9h-.5.5l-.2-.2c.1.1.2.1.2.2zm-3.6 5.8c.1 0 .1.1.2.1-.1 0-.2 0-.2-.1v.2h-.3.3v-.2c-.5-.3-1-.6-1.4-.9.4.3.9.6 1.4.9zm-5.8-3.5c.2 0 .4.2.5.1.2-.1.3.1.5.2l.1-.1c.3-.1.3-.5.5-.7.2-.3.2-.3.5-.3.4.1.7.3 1 .5.3.2.6.4 1 .6.2.1.4.2.4.5-.1.3 0 .6-.4.7 0 0-.1 0-.2.1.2.2.4.3.7.5-.8.1-1.4.2-2-.1-.8-.4-1.5-.9-2.2-1.5-.3-.1-.4-.3-.4-.5-.1 0-.1 0 0 0zm-.2 3.4h.2c.1-.1.2-.3.3-.4.1 0 .3 0 .4.1.1 0 .2.1.3.2l.4-.4c.2 0 .4 0 .6.1.4.1.7.2 1.1.4v-.1.1c.1.1.2.2.2.3 0 .1.1.1.1.2s0 .3-.1.4c-.1.1-.3 0-.4 0l-.3-.3c-.1.2-.1.4-.2.6-.1.2-.1.4-.2.5 0 .1-.1.2-.2.2-.3 0-.7.2-1-.1-.4-.5-.8-1-1.3-1.4-.1-.2-.1-.3.1-.4zm-1.5-1.6c.1.1.2.3 0 .4-.1.1-.3 0-.4 0-.2-.1-.3-.1-.5 0s-.4 0-.6-.1l-1.5-.9c.4-.2.7-.4 1-.6 0-.1-.1-.1-.1-.2 0-.3.1-.4.3-.3.1 0 .1.1.2.1.1.1.2.2.3.2.7.3.9.9 1.3 1.4zm-6.5-6.7c.1.2.1.4-.1.5-.2.1-.3.1-.5 0 0 0-.1-.1-.2-.1-.1.2-.3.2-.5.1-.3-.1-.6-.3-.7-.6-.3-.5-.6-.9-.9-1.4-.1-.1-.3-.3-.1-.4.1-.1.3-.3.5-.2h.2v-.2c.1-.4.3-.5.6-.3.2.1.3.3.4.4l.9.9c.4.4.4.5.1 1 .2 0 .3.1.3.3zm-5.7-5.2c0 .1-.1.2-.1.2h-.2c-.1 0-.1-.1-.2-.2-.8-.8-1.5-1.6-2.3-2.5-.3-.3-.3-.3 0-.6-.1-.1-.1-.2-.2-.3 0-.1 0-.1.1-.1.4-.3.9-.4 1.3-.4.2 0 .4.1.5.2.7.6 1.3 1.4 1.7 2.2.1.2.2.4 0 .6-.2.2-.3.4-.7.3-.1 0-.2 0-.4.1.2.1.5.2.5.5zm-6.7-5.4c.1.4-.1.5-.5.5h-.2c-.1.1-.2.1-.2 0l-.1-.1c-.4.2-.5-.1-.7-.4-.4-.5-.8-1-1.1-1.5-.1-.2-.2-.4-.3-.7.2 0 .3-.1.4-.1 0-.1-.1-.1-.1-.2-.1-.4-.1-.7-.1-1.1 0-.1.1-.3.2-.4 0 0 .2.1.3.2l.2.2c.1.2.2.3.5.2h.2c.3.3.7.3.9.7.1.2.3.4.5.6.1.1.3 1.3.3 1.4-.1.1-.2.2-.2.3v.4zm2.8-44.5c-.2-.1-.3-.2-.4-.3l-.1-.1v-.1.1s0 .1.1.1c.1.1.2.2.4.3.1-.2.2-.4.3-.5.3-.3.7-.5 1-.8.3-.2.5-.3.8-.1h.1l-.3.3c.1.3.1.5-.2.7-.3.2-.4.5-.1.9-.2 0-.4.1-.4.1-.3-.2-.5-.1-.8 0h-.2c-.1-.1-.1-.3 0-.4.1-.1-.1-.1-.2-.2-.2 0-.3.1-.5.1.2 0 .3-.1.5-.1 0 .1 0 0 0 0zm2.2-3.9zm-3.5 11.5c-.1 0-.1-.2-.1-.3.1-.2-.1-.3-.2-.4.1-.1.1-.2.2-.3.3 0 .4-.2.6-.5-.1 0-.2-.1-.3-.1.4-.4.7-.7 1.2-.9.4-.1.7-.4 1-.6.2-.1.3-.2.5 0 .1.1.3 0 .5.1 0 .1 0 .3.1.5 0 .1 0 .2.1.3.2.3.2.7 0 1-.1.3-.2.7-.3 1-.1.2 0 .4 0 .7-.5.3-.6.1-.7-.8-.1 0-.2.1-.3.1l-.3-.9c-.1 0-.3 0-.4.1-.2.2-.4.4-.8.4-.2 0-.4.3-.6.4 0 .2-.1.3-.2.2zm5.2 9.5c-.3.7-.7 1.4-1 2l1-2zm1.6 39.2c.2.2.4.5.5.7 0 .5-.4.4-.7.5l-.9-.9-.1-.1c0-.2-.1-.5-.1-.7.7-.2 1-.1 1.3.5zm5.7-46.5v-.1.1zm.8-.8zm-4.5-9.1c.5 0 .9.4 1.3.7.6.5.6 1.1.4 1.7-.1.5-.4.9-.7 1.3-.5.8-1.2 1.1-2.2.9-.4-.1-.7-.2-1-.4-.1-.1-.2-.1-.2-.2-.1-.2-.1-.3-.4-.4-.1 0-.2-.2-.2-.4v-.6c-.1-.5.3-.9.6-1.4.5-.9 1.4-1.2 2.4-1.2zm-4-.9c.2-.1.3-.2.5-.3.1-.1.3-.2.5-.3-.1-.1-.1-.1-.2-.1V3c.4-.2.7-.4 1.1-.6.2-.1.3-.1.3.2l-.1.1h.2c.1 0 .2 0 .2-.1.2-.1.5-.2.5.2 0 .1.2.2.3.3.1.2 0 .4-.2.4-.4-.1-.6.1-.9.1-.1 0-.2.1-.4.2s-.4.1-.5-.2c-.2.1-.4.2-.6.4-.1.2-.4.2-.7.2 0 0-.1-.1-.2-.1.1-.2.2-.3.2-.3zm-.5 7.9c.1-.2.2-.3.4-.5.3-.2.5-.5.8-.9.3.3.6.6.9 1 .1.3-.2.5-.3.8-.1 0-.2-.1-.3-.1-.2.1-.3.2-.5.2s-.2.2-.3.3c-.1.1-.2.1-.3.2 0 0-.1-.1-.1-.2s0-.1-.1-.2c-.3-.2-.4-.4-.2-.6zM263.8.8l-.1.1s0-.1.1-.1zM258.2 6c.3-.4.7-.8 1.1-1.1.1-.1.3-.2.4-.3.1.1.1.2.2.3.3-.1.5.1.5.4-.1.2-.1.3-.2.5-.1.1-.2.3-.3.4-.3.4-.4.4-.9.1-.2.2-.4.5-.5.8-.5-.6-.6-.7-.3-1.1zm-1.4 6.5c.2-.2.4-.5.6-.7.2-.2.4-.4.8-.5.1 0 .2-.1.3-.2l.3-.3.1.1c0 .3.1.5-.2.7-.1.1-.1.2-.1.3-.3.7-.9 1.3-1.5 1.8 0 0-.1.1-.2.1-.6-.6-.6-.6-.1-1.3zm-3.6 6.3c.1-.2.3-.3.4-.4.1-.1.1-.2.2-.3.1 0 .1.1.2.1-.1.5-.2.9-.3 1.4-.2 0-.3-.1-.5-.1v-.7zm-1.7 29.7c-.3-.2-.7 0-1-.3-.1-.1-.3 0-.4.1-.3-.9-.6-1.7-.9-2.6-.1-.2-.1-.5 0-.8 0-.2.3-.3.4-.4.2.1.3.2.5.3.3-.4.5-.4.7.1.2.8.5 1.5.7 2.3.1.2.2.4.3.7 0 .1.1.2.1.3.1.3-.1.5-.4.3zm4.6 6.9h-.5v.5c-.2.1-.4 0-.5-.1l-.3-.3c-.2-.2-.4-.5-.7-.7-.1-.1-.2-.2-.3-.4-.4-.9-.8-1.8-1-2.7-.1-.4 0-.8.3-1.2.1.2.2.3.3.5.5 1 1 2 1.3 3 .2.6.6 1 1.1 1.2.1 0 .2.1.3.2 0-.1 0 0 0 0zm.2-2.8c0-.2 0-.3.1-.4.2-.1.3.1.3.2h.1c.1 0 .3 0 .4-.1.3-.1.5 0 .7.3.5.7 1 1.4 1.4 2.2.1.2 0 .5.1.7 0 .3-.3.4-.4.5.1.5 0 .6-.4.8-.3.2-.5 0-.6-.2 0-.1-.1-.1-.1-.2-.4-.8-.9-1.6-1.2-2.5-.3-.4-.3-.8-.4-1.3zm3.7 8.8v.7c0 .3-.1.4-.4.3-.6-.2-1.2-.4-1.5-1-.4-.6-.8-1.2-1.1-1.9-.2-.3-.1-.7-.2-1.1.5-.1.6.3.8.5.4-.6.6-.7 1-.1.5.7.9 1.4 1.3 2.1.1.1.1.3.1.5zm.3-8.3c0-.1-.1-.1-.1-.2l-.1.1c0 .1 0 .2.2.1-.1.2-.1.3-.2.4-.4-.3-.7-.8-.8-1.2.1-.1.4-.1.5-.4.4.5.5 1.1.9 1.5l-.1.1c-.1-.1-.2-.3-.3-.4zm3.4 14.5zm.8-4.7c-.1.1-.3.2-.4.1-.1-.1-.2-.1-.3.1 0 .1 0 .2.1.3-.5.1-.9.1-1.4-.3-.7-.7-1.2-1.6-1.7-2.4-.3-.5-.2-1.1-.4-1.6.2 0 .3.1.5 0 .2-.2.4 0 .6.1.3.3.5.6.7.9.5.6 1.1 1.2 1.7 1.7.2.2.4.5.6.7.2 0 .2.2 0 .4zm.7-3.9c-.2 0-.4-.1-.7-.1 0 .1 0 .2-.1.3-.1.2-.3.3-.5.2-.3-.2-.5-.3-.8-.5-.4-.5-.8-.9-1.2-1.4-.2-.3-.4-.5-.1-.9.1-.1.1-.4.2-.6.2.1.3.1.4.1.4-.5.5-.5.9 0 .6.7 1.3 1.3 1.9 2 .1.1.2.3.3.4.1.3 0 .6-.3.5zm6.5 9.3c-1-.1-2-.5-2.9-1.1-1.4-.8-2.4-1.8-3.2-3.2.2-.1.4-.2.5-.2.1 0 .3.1.4.2.2.1.3.2.5.1s.4 0 .6.1c.4.3.9.6 1.3.9.6.4 1.2.9 1.8 1.4l.6.3c.2.1.4.2.4.5v.7c-.1 0 0 .1 0 .3 0-.1 0 0 0 0zM273 63c.1.5-.2.7-.7.7-.5 0-.8-.2-1.1-.6-.4-.4-.8-.9-1.1-1.5v-.2l.1-.1c.4.3.7.6 1.2.4.2-.5.4-.6.8-.2.4.3.7.6 1.1.9.2.3.1.5-.3.6zm-.4-5.1c-.1-.2-.3-.4-.4-.6.1-.2.4-.1.3-.4 0 0 .1-.1.2-.1h.2c.2-.2.4 0 .6.1.4.3.7.7 1.1 1 .2.2.5.3.8.5.2.1.3.2.3.4s-.2.3-.4.3h-.1c-.1.3-.1.5-.2.8-.2.1-.4.1-.6-.1-.6-.6-1.2-1.2-1.8-1.9zm.2 17.7zm-.3.2zm-.3.1s-.1 0 0 0c-.1 0 0 0 0 0zm-.2.3c-.1 0-.1 0 0 0-.1 0-.1 0 0 0zm-1.6 1.1l.1-.1c0 .1 0 .1-.1.1 0 .1 0 .1 0 0 0 .1 0 .1 0 0zm-8.3 5.8c-.1 0-.1-.1 0 0-.1-.1-.1 0 0 0zm26.8-2.9c0 .1-.1.1-.2.2-1.2 1.5-2.6 2.8-4.1 3.9-.5.4-.9.8-1.4 1.2-.4.4-.9.7-1.3 1-.1.1-.4.1-.6.1-1.9 0-3.9 0-5.8-.1-4.1-.1-8.3-.1-12.4-.2h-.7c.6-.3 1.2-.6 1.8-1.1.5-.5 1.1-1 1.7-1.4 1.5-1.1 2.9-2.2 4.4-3.2 2.1-1.5 4.3-2.9 6.4-4.4.6-.4 1.2-.8 1.8-1.1.2-.1.3-.2.5-.2.5-.1.8-.4 1-.9.2-.4.4-.7.6-1.2.4.1.8.1 1.3.3.6.3 1.2.3 1.8.3h.1c.3-.4.8-.1 1.1-.2.4-.1.8 0 1.2.1.1 0 .2.1.2.1.4 0 .9.1 1.3.1h1.4c.3 0 .6-.1.9-.2.3 0 .6 0 .9-.1.6.8 1.1 1.6 1.6 2.6-.4.5-.9 1-1.3 1.5l-.1.1c-.5.7-1.1 1.4-1.5 2.2-.2.1-.4.4-.6.6zM298 77c-.4.4-.7.9-1.1 1.3-.2.2-.4.5-.7.7-.6.4-1 1-1.3 1.6.5.8.6 1.7.8 2.6.2.8.4 1.6.6 2.3.1.4.2.8.3 1.3-2.3 0-4.6-.1-6.9-.1.1-.7.4-1.2.7-1.7.4-.6.6-1.2.9-1.9 0-.1.1-.3.2-.4.7-1.1 1.4-2.3 2.3-3.3.4-.5.9-.9 1.3-1.4.6-.6 1.2-1.2 1.7-1.8.8-.9 1.7-1.8 2.5-2.7.3-.3.4-.3.8-.1.5-.9.4-2 .8-2.9.1 0 .2 0 .3.1.2.1.4.1.5 0 .7-.4 1-.5 1.8-.6-.1.1-.1.2-.2.3-.2.3-.3.5-.5.8-.3.6-.6 1.3-.9 1.9-.1.3-.3.5-.6.7-.9.7-1.6 1.6-2.4 2.4-.2.3-.6.5-.9.9zm2 9.8c-.1-.7-.1-1.5-.3-2.2-.1-.7-.4-1.4-.6-2.2.8.3 1.2.8 1.3 1.5.1.6.2 1.1.3 1.7.1.4.2.8.2 1.2h-.9zm4 .1c-.3-.5-.7-1.8-.7-2.2.4.2.7.3 1.1.5.1 0 .1.1.2.2.1.5.3.9.4 1.4-.4.1-.7.1-1 .1zm3.3.1c-.2-.4-.3-.9-.6-1.4.4.1.8.1 1.2.2.1 0 .2.1.2.2.2.3.3.6.5 1h-1.3zm2.9-4.9c-.3.5-.5 1.1-.8 1.6-.1.2-.3.4-.4.6-.1.1-.2.2-.3 0-.1-.2-.3-.2-.5-.2-.6 0-1.1.1-1.7.1h-.2c-.5-.3-1-.2-1.5-.4l-.6-.3c-.6-.3-1.1-.6-1.7-.9-.2-.1-.4-.3-.7-.4-.8-.4-1.6-.8-2.3-1.4l-.3-.3c-.1-.1-.2-.3 0-.5.1-.2.3-.2.4-.1.2.2.5.1.7 0 .1 0 .2.1.3.1.2.1.4.2.5.3.7.4 1.4.7 2.2 1.1.9.4 1.8.6 2.8.8.2 0 .4.1.6.1.2 0 .5 0 .7-.1.5-.2.6-.2 1.1-.1.1-.2.3-.4.4-.6.2-.3.4-.5.6-.8l.3-.3c.3-.5.5-1 .8-1.5-.2-.2-.3-.4-.5-.6.2.2.3.4.5.6.1-.2.3-.5.4-.7l.5-.5c.1-.1.1-.2.2-.4s.2-.4.5-.5c.2 1.2.2 1.1-.3 2.4.1.1.1.1.1.2-.2.2-.3.3-.4.5-.2.3-.3.5-.5.8 0 .1-.1.1-.1.2.1.4-.1.6-.4.8-.2.1-.3.3-.4.4zm1.6 4.9c-.4-.8-.8-1.7-1.3-2.6.2-.2.4-.3.6-.5.6 1 1.2 2.1 1.8 3.1h-1.1z"/><path class="st4" d="M301.9 50.3c-.1 0-.2-.1-.3-.1-.2-.1-.5-.3-.7-.4-.5-.1-1-.3-1.4-.5-.5-.2-.9-.4-1.2-.9-.1-.2-.3-.2-.5-.3l-.4-.4c-.3-.3-.6-.5-.8-.8-.4-.7-1.1-1.3-1.5-2-.5 0-.9.1-1.3.1s-.7-.2-1.1-.1h-.2c-.4-.1-.7-.3-1-.7-.1-.1-.2-.1-.3-.2-.1.1-.2.3-.3.4.3.7.8 1.2 1.3 1.7v.1h-.1c-.2 0-.5.2-.7-.1h-.2c-.5-.1-1.1-.2-1.6-.3-.3-.1-.7-.1-1.1-.2.3.6.7 1.1 1.2 1.5.5.5 1 .9 1.5 1.4.4.5.9 1 1.5 1.3.4.2.7.4 1.1.6.6.2 1.2.5 1.7.7.1 0 .1.1.2.1.4 0 .7 0 1.1.1.6.1 1.2 0 1.6.4 0 0 .1.1.2 0 .4-.2.7 0 1.1 0 .3 0 .5 0 .8-.1.6-.2 1.1-.8 1.8-.7 0-.4 0-.6-.4-.6zm-8-3.1c.1 0 .1 0 0 0 .1 0 .1 0 0 0zm3.9 1.1c0 .1.1.2.2.3-.1-.2-.2-.2-.2-.3zm1.1 1.2s-.1 0 0 0c.1-.1.1-.1.2-.1v.1h-.2zm.4.1c0-.1.1-.1 0 0 .1 0 .1 0 0 0 .1 0 0 0 0 0z"/></svg>