<svg id="fm-logo" xmlns="http://www.w3.org/2000/svg" viewBox="-364 141 70 70"><style>.st0{stroke:#38b093}.st0,.st1,.st2{fill:none;stroke-width:3.2;stroke-miterlimit:10}.st1{stroke:#313a41}.st2{stroke:#fff}.st3{fill:#38b093}</style><g id="XMLID_2_"><path id="XMLID_11_" class="st0" d="M-345.1 159.2c-1.2-1.5-1.9-3.4-1.8-5.4.2-4.4 4-7.7 8.4-7.7h19.7c0 6.6-5.5 10.4-11.3 10.4h-2.9"/><path id="XMLID_8_" class="st0" d="M-321.6 182.4l1.1-1.1c1.2-1.3 1.9-3 1.9-4.8v-.4c0-2.9-1.3-5.4-3.4-7.1-1.5-1.2-3.5-1.9-5.6-1.9h-6.5"/><path id="XMLID_7_" class="st0" d="M-337.6 196.6s0-.1 0 0c-1.5-1.9-1.7-4.4-.7-6.5 2.9-6 7.1-10.4 10.6-13.7 4-3.8 3-9.3-2.8-9.3"/><path id="XMLID_6_" class="st0" d="M-330.1 156.4h4.9c8.9 0 12.1 8.3 11.6 13.5-.5 5.6-5.1 9.5-8.8 13.3-4 4-7.8 8.3-9.6 13.8v.1c-.8 2.5.2 5.3 2.5 6.7.7.4 3.7 2 4.3 2.3"/><path id="XMLID_5_" class="st0" d="M-318 148.6c9.4 3.9 13.9 11 13.9 20.3 0 6.5-2.9 12.4-7.5 16.4-4.3 4.4-9.4 8.3-11.3 14.3-.7 2.2-1.1 4.1-1.1 7.4 0 .2-.1.3-.3.2-1.5-.6-8.2-3.6-13.8-11.3-2.5-3.7-4.2-8.3-4.8-14.2l-.1-1.7c5.8 0 9.1-3.8 9.1-8.6v-10.1c1.3-1.1 2-2.8 1.6-4.7-.4-1.9-1.9-3.4-3.7-3.8-1.8-.4-3.5.3-4.6 1.5l-14.5 16.9c-.5.6-.6 1.5-.2 2.2l5.5 9.7c.7 1.3 2.1 2 3.5 2h3.4"/><path id="XMLID_4_" class="st3" d="M-344.5 168.1v-3.3c0-.6.5-1 1-1h2.9c.5 0 .7.6.4.9l-3.4 3.7c-.3.4-.9.2-.9-.3z"/><path id="XMLID_3_" class="st3" d="M-354.6 170.6h6.8c.7 0 1 .8.6 1.3l-5 5.5-2.4-6.8z"/></g></svg>