<svg width="400" height="400" viewBox="0 0 400 400" xmlns="http://www.w3.org/2000/svg"><g transform="translate(9.524 9.524)" fill="none" fill-rule="evenodd"><path d="M344.988 79.064c22.629 31.328 35.964 69.813 35.964 111.412 0 105.197-85.279 190.476-190.476 190.476-41.599 0-80.084-13.335-111.412-35.964M301.888 35.964C270.56 13.335 232.075 0 190.476 0 85.28 0 0 85.28 0 190.476c0 41.6 13.335 80.084 35.964 111.412" stroke="#F01616" stroke-width="19.048" stroke-linecap="round"/><circle fill="#F01616" cx="327.619" cy="327.619" r="38.095"/><circle fill="#F01616" cx="53.333" cy="53.333" r="38.095"/><path d="M190.476 323.81c73.638 0 133.334-59.696 133.334-133.334S264.114 57.143 190.476 57.143 57.143 116.838 57.143 190.476 116.838 323.81 190.476 323.81z" fill="#57626B"/><path d="M190.476 209.524c10.52 0 19.048-8.528 19.048-19.048 0-10.52-8.528-19.047-19.048-19.047-10.52 0-19.047 8.527-19.047 19.047 0 10.52 8.527 19.048 19.047 19.048z" fill="#222426"/></g></svg>