<svg xmlns="http://www.w3.org/2000/svg" viewBox="0 0 191.8 28.3"><style>.st0{fill:#b1b1b1}</style><g id="Page-1_1_"><g id="theron_1_"><path id="Theron-Studios-Copy-4_1_" class="st0" d="M9.5 5.6C5.6 11.5 1.2 20.5.2 23.9c-.5 2 0 3.2.5 3.8.4.3.6.3.7-.1 3.3-7.6 6.8-13.5 9.3-18 1.1-2 1.4-3.4 1.4-4.4 2.4-.4 5-.8 7.1-.6.5 0 .6-.3.5-.6-.6-1.6-2.2-2.1-3.9-2.1C13.3 1.8 6.4 3.3 2.7 3c-.4 0-.6.2-.4.6C2.7 5.1 4.5 6 7 5.9c.7 0 1.6-.1 2.5-.3z"/><path id="Path_25_" class="st0" d="M28.1 23.7c.6-1.2.6-2.1.4-2.6-.2-.3-.6-.3-.7 0-1.3 2.7-3.6 5.6-5.3 5.7-1.5.1-1.7-1.9-.7-4.3 1-2.2 2.9-5.2 3.9-7 1.1-2.1-.2-4.2-1.6-4.4-1.1-.1-3.3 1.2-5 2.9 1.8-2.8 4-6.1 5-7.8 1.6-2.6 1.7-4.7 1.2-5.9-.2-.5-.6-.5-1 0-3.4 4.2-12 18.8-13.5 23-.9 2.5-.5 3.7.2 4.4.2.3.5.2.7-.2 1-2.5 2.5-5.4 4-7.9 2.4-3.9 6.9-6.8 7.5-6.4.7.4-2.9 4.7-4.3 8.7-1.2 3.6-.4 6.1 3.1 6.1 2.4.1 4.9-2 6.1-4.3z"/><path id="Path_24_" class="st0" d="M54.8 23.8c.5-1.2.4-2.2.2-2.7-.2-.4-.5-.3-.6 0-1.3 3.1-3.4 5.8-5.2 5.7-1.2 0-1.7-1.7-1-4 .7-2.2 2.8-5.1 4.8-7.2 1.2-1.4.2-3.4-.6-4.3-.3-.4-.7-.2-1.2.1-1.6 1.1-3.1 1.7-4.5 2 1-2.7 1.5-5.2.2-5.2-1.7.1-5.8 5.6-2.6 6.9-2.3 5.3-6.9 11.8-11.4 11.6-2.1-.1-3.2-2.8-1.8-6.6 2.9 2.3 5.7 1.3 7.6-1.2 1.7-2.1 2.1-4.6 1.4-5.6-.7-.9-1.4-1.5-2.5-2.1-2.1-1.2-6.3 1.1-8.9 6.3-2.8 5.4-1 10.6 4.3 10.5 4.9-.1 9.4-5.3 12.9-12.5 1.3 0 3.2-.4 5-1.6-1.8 2-4.3 5.1-5.1 7.8-1 3.4.2 6.2 3.4 6.4 2.1.1 4.6-1.8 5.6-4.3zm-23.5-4.5c.1-.2.2-.5.3-.7 1.9-3.8 5.3-6.4 6.2-5.6.5.5-.3 2.6-1.7 4.3-1.1 1.6-2.7 3.3-4.8 2z"/><path id="Path_23_" class="st0" d="M85.9 23.7c.6-1.3.6-2.1.4-2.6-.1-.3-.5-.3-.7 0-1.6 3-3.6 5.7-5.2 5.7s-1.8-1.8-.7-4.2c1-2.2 2.9-5.1 3.9-7 1-2.1-.2-4.2-1.6-4.4-1.4-.2-4.2 2.1-6 4 .5-1.5.5-2.9-.2-3.9-.2-.4-.6-.4-.9.1-2.2 3.4-4.9 6.4-7.6 6.5v-.7c.2-3-1-3.2-2-4.6-.8-1.1-1.5-1.5-2.8-1.4-2.5.2-5 2.6-6.6 5.4-1.9 3.2-2.5 6.9-.7 9.3 1.6 2.2 3.7 2.2 5.2 1.7 3.1-1 5.7-5.3 6.6-8.8 1.5.1 2.7-.3 3.9-1-1.2 2.2-2.2 4.4-2.6 5.6-.7 2.1-.4 3.4.3 4.2.4.4.7.2.8-.1 1.7-3.9 3.7-7.9 6.1-10.5 2.7-2.9 5-4 5.5-3.8.7.2-2.9 4.7-4.3 8.7-1.2 3.5-.3 6.1 3.1 6.1 2.4.1 4.9-1.9 6.1-4.3zm-21.5-5.4c-.3 1-.8 2.2-1.5 3.5-2 3.7-4.6 5.2-5.7 4.3s-.5-4.8 1.3-7.9c.9-1.5 2.1-3 3.2-3.9 0 1.6 1.2 3.2 2.7 4z"/><path id="Path_22_" class="st0" d="M64.6 17.2c-.8-.7-1.1-1.9-1-2.8.2-1.2 1-1.5 1.2-.1.2.7.1 1.7-.2 2.9z"/><path id="Path_21_" class="st0" d="M92.8 21.9c-.4.1-.5.4-.1 1 5.9 7.1 13.1 6.3 15.6 3.4 1.8-2.1 2-4 .5-5.1-2.3-1.7-7.6-3.9-7.5-6.6.2-5.2 10.4-11.5 11.8-10.1 1 1-2.1 4.5-3 6.5-.9 2-.4 3.2.4 4 .5.5.7.2.9-.1.6-1 1.8-3.2 2.9-4.6.6-.9 1.6-2.5 1.2-4.2-.3-1.2-1-2.5-2.1-3.5-1.4-1.3-3.4-1-5.4-.1-3.7 1.5-10.1 6.4-10.1 12.1 0 4.3 6.6 6.9 8.8 8.7.6.5.8 1.4.1 2.2-.5.5-1.4.7-2.6.7-2.7 0-5.5-2.2-7.2-3.5-1.1-.9-2.8-1.2-4.2-.8z"/><path id="Path_20_" class="st0" d="M118.6 11.3c-1.8 3.3-3.5 6.8-4.4 8.8-2 4.8.2 7.8 2.9 7.9 3.3.1 6.1-3.5 6.6-4.7.4-1 .6-1.7.4-2.4-.2-.6-.6-.5-.9 0-1.5 3.1-3.9 6.1-5.8 6-1.7-.1-2.2-2.7-.8-5.7 1.6-3.5 3.9-7.5 5.6-10.3 1-.2 2.3-.3 3.2-.2.6 0 .8-.3.5-.8-.3-.5-1-1.3-2.6-1.2 1-2.2 1-3.5.5-4.7-.2-.5-.6-.5-1 0-.7.9-1.9 2.9-3.2 5.1-1.1.1-2.3.2-3.4.2-.6 0-.9.2-.5.8.6.6 1.5 1.2 2.9 1.2z"/><path id="Path_19_" class="st0" d="M130 24.1c-.3 2.4.7 4.1 3.4 4.1 2.5 0 5-2.1 6.2-4.4.6-1.2.5-2.3.4-2.6-.2-.4-.5-.3-.7 0-1.6 2.9-3.7 5.6-5.5 5.7-1.5.1-1.7-1.7-.6-4 1-2.1 3-5.2 3.9-7.1 1-2.1.7-3.9 0-4.7-.3-.4-.6-.3-1 .2-1.3 1.8-2.5 4.7-5.1 8.9-2.2 3.6-4.5 6.5-6.1 6.4-1-.1-1.1-1.6-.2-3.6.9-2 1.7-3.7 3.2-6.1 1.5-2.4 1.7-4.2.8-5.6-.3-.4-.7-.4-1.1 0-2.7 3.8-4.8 7.8-5.7 10.6-.9 2.7-.8 5.8 2.1 6 2.4.2 4.6-1.9 6-3.8z"/><path id="Path_18_" class="st0" d="M150.2 22.9c2.1-4.4 6.1-11.3 8.1-14.8 1.7-3.1 1.9-4.9 1.3-6.3-.2-.5-.6-.6-1 0-1.5 2.1-4.7 7.8-6.9 12 0-1.5-.8-2.8-2.5-2.8-2.1 0-5.4 1.9-8.7 6.7-3.4 5-2.7 10.3 1.2 10.3 2 0 3.8-1.5 5.1-3.2 0 2 1.1 3.2 3.4 3.3 2.3.1 4.9-2.1 6-4.4.5-1.1.5-2.2.3-2.6-.2-.3-.5-.3-.7 0-1.5 2.9-3.7 5.6-5.4 5.7-1.4.3-1.3-1.4-.2-3.9zm-.4-9.7c1.2 0 .6 2.7-1.8 7.3-2 3.8-4.2 6.2-5.9 6.2-1.6 0-1.2-3.7 1.1-7.2 2.3-3.7 5.3-6.4 6.6-6.3z"/><path id="Path_17_" class="st0" d="M165 8.4c-.5-1.1-1.7-1.6-2.4-.9-.7.7-.9 2-.2 3.1.6 1.1 1.8 1.2 2.3.6.5-.6.8-1.8.3-2.8z"/><path id="Path_16_" class="st0" d="M158.2 28.1c2.3 0 4.9-1.7 6.2-4.3.5-1 .6-1.9.3-2.6-.2-.3-.5-.4-.7 0-1.2 2.9-3.5 5.6-5.4 5.7-1.3.1-1.4-1.5-.4-3.9.9-2.1 2.6-4.9 3.5-6.7 1-2.1.7-3.9 0-4.5-.3-.4-.6-.2-1 .2-1.5 2.2-4.3 7.1-5.3 10.1-1.1 3.3-.3 6 2.8 6z"/><path id="Path_15_" class="st0" d="M177.9 18.5c.2-.2.2-.4-.1-.4-.3 0-.6.1-.8.1 0-.3 0-.6.1-1 .2-3-1-3.3-2-4.6-.8-1.1-1.5-1.5-2.8-1.4-2.5.2-5 2.6-6.6 5.4-1.9 3.3-2.5 6.9-.7 9.3 1.7 2.2 3.7 2.3 5.2 1.8 3.1-1 5.7-5.2 6.6-8.8.4.1.8-.1 1.1-.4zm-3.9 0c-.3 1-.8 2.2-1.5 3.3-2 3.8-4.6 5.3-5.7 4.3-1.1-.9-.5-4.7 1.3-7.9.9-1.6 2.1-2.9 3.2-3.9 0 1.5 1 3 1.9 3.7.3.2.5.4.8.5z"/><path id="Path_14_" class="st0" d="M174.3 17.4c-.7-.6-1.1-1.8-.9-2.9.2-1.2 1-1.5 1.2-.1.2.7.1 1.7-.3 3z"/><path id="Path_13_" class="st0" d="M179.1 20.6c0-.3 0-.7-.1-1 0-.7-.4-.8-.9-.4-1.4 1.2-1.5 3.9-.5 5.8 1.4 2.6 3.7 3.2 6.1 3.1 2.9-.1 5.8-1.7 7.4-4.6.7-1.3.7-2.4.6-2.7-.2-.3-.6-.5-.8 0-1 2.2-2.8 4.7-5.6 5.8 1.5-1 1.8-2.7 1.9-4.4.1-2.9-.7-6.1-.4-9.9.2-.3.3-.5.5-.8.5-1 .7-1.4.3-1.8-.4-.4-1.3-.2-2.2.6-.9.8-1.3 1.6-1.5 3.2-1.2 2.1-3.1 4.8-4.8 7.1zm4.7-4.5c.2 3.3.8 9.8-1.1 10.4-1.4.4-2.6-1.3-3.2-3.7 1.5-2.2 3.1-4.5 4.3-6.7z"/></g></g></svg>